%TF.GenerationSoftware,Altium Limited,Altium Designer,21.2.1 (34)*%
G04 Layer_Physical_Order=1*
G04 Layer_Color=255*
%FSLAX26Y26*%
%MOIN*%
%TF.SameCoordinates,8A87C6E5-8FA9-4E2E-8158-6E1788DF71BD*%
%TF.FilePolarity,Positive*%
%TF.FileFunction,Copper,L1,Top,Signal*%
%TF.Part,Single*%
G01*
G75*
%TA.AperFunction,SMDPad,CuDef*%
%ADD10R,0.047244X0.047244*%
%ADD11R,0.062992X0.059055*%
%ADD12R,0.013780X0.027559*%
%ADD13R,0.122047X0.039370*%
G04:AMPARAMS|DCode=14|XSize=39.37mil|YSize=78.74mil|CornerRadius=9.842mil|HoleSize=0mil|Usage=FLASHONLY|Rotation=180.000|XOffset=0mil|YOffset=0mil|HoleType=Round|Shape=RoundedRectangle|*
%AMROUNDEDRECTD14*
21,1,0.039370,0.059055,0,0,180.0*
21,1,0.019685,0.078740,0,0,180.0*
1,1,0.019685,-0.009843,0.029528*
1,1,0.019685,0.009843,0.029528*
1,1,0.019685,0.009843,-0.029528*
1,1,0.019685,-0.009843,-0.029528*
%
%ADD14ROUNDEDRECTD14*%
G04:AMPARAMS|DCode=15|XSize=70.866mil|YSize=118.11mil|CornerRadius=0mil|HoleSize=0mil|Usage=FLASHONLY|Rotation=270.000|XOffset=0mil|YOffset=0mil|HoleType=Round|Shape=Octagon|*
%AMOCTAGOND15*
4,1,8,0.059055,0.017716,0.059055,-0.017716,0.041339,-0.035433,-0.041339,-0.035433,-0.059055,-0.017716,-0.059055,0.017716,-0.041339,0.035433,0.041339,0.035433,0.059055,0.017716,0.0*
%
%ADD15OCTAGOND15*%

%ADD16R,0.047244X0.019685*%
%ADD17R,0.062992X0.019685*%
%ADD18R,0.059055X0.055118*%
%ADD19R,0.039370X0.055118*%
G04:AMPARAMS|DCode=20|XSize=15.748mil|YSize=33.465mil|CornerRadius=3.937mil|HoleSize=0mil|Usage=FLASHONLY|Rotation=0.000|XOffset=0mil|YOffset=0mil|HoleType=Round|Shape=RoundedRectangle|*
%AMROUNDEDRECTD20*
21,1,0.015748,0.025591,0,0,0.0*
21,1,0.007874,0.033465,0,0,0.0*
1,1,0.007874,0.003937,-0.012795*
1,1,0.007874,-0.003937,-0.012795*
1,1,0.007874,-0.003937,0.012795*
1,1,0.007874,0.003937,0.012795*
%
%ADD20ROUNDEDRECTD20*%
G04:AMPARAMS|DCode=21|XSize=17.716mil|YSize=55.118mil|CornerRadius=1.949mil|HoleSize=0mil|Usage=FLASHONLY|Rotation=90.000|XOffset=0mil|YOffset=0mil|HoleType=Round|Shape=RoundedRectangle|*
%AMROUNDEDRECTD21*
21,1,0.017716,0.051221,0,0,90.0*
21,1,0.013819,0.055118,0,0,90.0*
1,1,0.003898,0.025610,0.006910*
1,1,0.003898,0.025610,-0.006910*
1,1,0.003898,-0.025610,-0.006910*
1,1,0.003898,-0.025610,0.006910*
%
%ADD21ROUNDEDRECTD21*%
G04:AMPARAMS|DCode=22|XSize=17.716mil|YSize=41.339mil|CornerRadius=1.949mil|HoleSize=0mil|Usage=FLASHONLY|Rotation=0.000|XOffset=0mil|YOffset=0mil|HoleType=Round|Shape=RoundedRectangle|*
%AMROUNDEDRECTD22*
21,1,0.017716,0.037441,0,0,0.0*
21,1,0.013819,0.041339,0,0,0.0*
1,1,0.003898,0.006910,-0.018721*
1,1,0.003898,-0.006910,-0.018721*
1,1,0.003898,-0.006910,0.018721*
1,1,0.003898,0.006910,0.018721*
%
%ADD22ROUNDEDRECTD22*%
%ADD23R,0.118110X0.062992*%
%ADD24R,0.216535X0.039370*%
%TA.AperFunction,Conductor*%
%ADD25C,0.008000*%
%TA.AperFunction,ViaPad*%
%ADD26C,0.019000*%
%ADD27C,0.100000*%
D10*
X2394796Y1205866D02*
D03*
X2473536D02*
D03*
X1567296D02*
D03*
X1646036D02*
D03*
X1370204D02*
D03*
X1291464D02*
D03*
X2118964D02*
D03*
X2197706D02*
D03*
X1015630D02*
D03*
X1094370D02*
D03*
X1843130D02*
D03*
X1921870D02*
D03*
X2749370D02*
D03*
X2670630D02*
D03*
D11*
X2434166Y1077914D02*
D03*
X1606666D02*
D03*
X1330834D02*
D03*
X2158336D02*
D03*
X1055000D02*
D03*
X1882500D02*
D03*
X2710000D02*
D03*
D12*
X2328826Y1527402D02*
D03*
X2380006D02*
D03*
Y1452598D02*
D03*
X2354416D02*
D03*
X2328826D02*
D03*
X2028972Y1527402D02*
D03*
X2080152D02*
D03*
Y1452598D02*
D03*
X2054562D02*
D03*
X2028972D02*
D03*
X1729118D02*
D03*
X1754708D02*
D03*
X1780298D02*
D03*
Y1527402D02*
D03*
X1729118D02*
D03*
X1429264D02*
D03*
X1480444D02*
D03*
Y1452598D02*
D03*
X1454854D02*
D03*
X1429264D02*
D03*
X1129410Y1527402D02*
D03*
X1180590D02*
D03*
Y1452598D02*
D03*
X1155000D02*
D03*
X1129410D02*
D03*
X2628678D02*
D03*
X2654268D02*
D03*
X2679858D02*
D03*
Y1527402D02*
D03*
X2628678D02*
D03*
X2749410Y1678448D02*
D03*
X2775000D02*
D03*
X2800590D02*
D03*
Y1753252D02*
D03*
X2749410D02*
D03*
D13*
X3131300Y1080000D02*
D03*
Y1180000D02*
D03*
X2918700Y1080000D02*
D03*
Y1180000D02*
D03*
X3131300Y1280000D02*
D03*
X2918700D02*
D03*
X3131300Y1380000D02*
D03*
X2918700D02*
D03*
X2903700Y2310238D02*
D03*
X3116300D02*
D03*
X2903700Y2210238D02*
D03*
X3116300D02*
D03*
X2903700Y2110238D02*
D03*
Y2010238D02*
D03*
X3116300Y2110238D02*
D03*
Y2010238D02*
D03*
D14*
X2200984Y2038780D02*
D03*
X2075000D02*
D03*
X1901772Y2275000D02*
D03*
X1988386D02*
D03*
X2075000D02*
D03*
X1988386Y2038780D02*
D03*
X1901772D02*
D03*
X2200984Y2275000D02*
D03*
D15*
X1043504Y2219882D02*
D03*
D16*
X1141930Y2278938D02*
D03*
Y2160826D02*
D03*
D17*
X1134056Y2219882D02*
D03*
D18*
X1380000Y2164700D02*
D03*
Y2282812D02*
D03*
X1615000Y2164700D02*
D03*
Y2282812D02*
D03*
D19*
X2525000Y2318308D02*
D03*
X2562402Y2231692D02*
D03*
X2487598D02*
D03*
D20*
X2246170Y1760236D02*
D03*
X2297352Y1687402D02*
D03*
X2246170D02*
D03*
X2297352Y1760236D02*
D03*
X2271762Y1687402D02*
D03*
Y1760236D02*
D03*
D21*
X1971854Y1658228D02*
D03*
Y1683820D02*
D03*
Y1709410D02*
D03*
Y1735000D02*
D03*
Y1760592D02*
D03*
Y1786182D02*
D03*
Y1811772D02*
D03*
X1739570Y1658228D02*
D03*
Y1683820D02*
D03*
Y1709410D02*
D03*
Y1735000D02*
D03*
Y1760592D02*
D03*
Y1786182D02*
D03*
Y1811772D02*
D03*
D22*
X1279338Y1793228D02*
D03*
X1253748D02*
D03*
X1228158D02*
D03*
Y1696772D02*
D03*
X1279338D02*
D03*
D23*
X805926Y2003228D02*
D03*
Y1420552D02*
D03*
D24*
X894508Y1908740D02*
D03*
Y1515040D02*
D03*
Y1830000D02*
D03*
Y1593780D02*
D03*
Y1751260D02*
D03*
Y1672520D02*
D03*
D25*
X2562402Y2231692D02*
X2564094Y2230000D01*
X2610000D01*
X2660000Y1871000D02*
Y2065000D01*
X2580000Y2145000D02*
X2660000Y2065000D01*
X2487538Y2146462D02*
X2636500Y1997500D01*
Y1847942D02*
Y1997500D01*
Y1847942D02*
X2655000Y1829442D01*
X2691000Y2060000D02*
X2841238Y2210238D01*
X2679858Y1847942D02*
X2691000Y1859084D01*
Y2060000D01*
X2485000Y2320000D02*
X2520000D01*
X2418000Y2355000D02*
X2450000D01*
X2485000Y2320000D01*
Y2225000D02*
X2490000Y2230000D01*
X2485000Y2175000D02*
Y2225000D01*
Y2175000D02*
X2515000Y2145000D01*
X2580000D01*
X1750534Y2146462D02*
X2487538D01*
X2200492Y2275492D02*
Y2359508D01*
Y2275492D02*
X2200984Y2275000D01*
X2200000Y2360000D02*
X2200492Y2359508D01*
X3027000Y1102000D02*
Y1267534D01*
X3016920Y1277614D02*
Y1446125D01*
Y1277614D02*
X3027000Y1267534D01*
X3005000Y1080000D02*
X3027000Y1102000D01*
X2876000Y1716000D02*
Y1716000D01*
X3020000Y1860000D01*
X3049478Y1976553D02*
X3195000Y1831031D01*
X3049477Y1976553D02*
X3049478D01*
X3195000Y1548000D02*
Y1831031D01*
X3041276Y1984754D02*
X3049477Y1976553D01*
X3041276Y1984754D02*
Y2252962D01*
X3056276Y1409276D02*
X3195000Y1548000D01*
X751686Y1673314D02*
X803314D01*
X720000Y1705000D02*
X751686Y1673314D01*
X803314D02*
X810000Y1680000D01*
X1020000Y2365000D02*
X1625000D01*
X702000Y1587726D02*
X774686Y1515040D01*
X720000Y1705000D02*
Y2039544D01*
X702000Y2047000D02*
X1020000Y2365000D01*
X702000Y1587726D02*
Y2047000D01*
X2246170Y1760236D02*
Y1855830D01*
X2177500Y1924500D02*
X2246170Y1855830D01*
X1430000Y1905000D02*
X1449500Y1924500D01*
X2177500D01*
X1118500Y1796734D02*
Y1848000D01*
X1098500Y1680000D02*
Y1776734D01*
X1118500Y1796734D01*
X1091020Y1672520D02*
X1098500Y1680000D01*
X894508Y1672520D02*
X1091020D01*
X1118500Y1848000D02*
X1175500Y1905000D01*
X1430000D01*
X1020456Y2340000D02*
X1610314D01*
X720000Y2039544D02*
X1020456Y2340000D01*
X1615000Y2282812D02*
Y2335314D01*
X1610314Y2340000D02*
X1615000Y2335314D01*
X1659000Y2224686D02*
Y2331000D01*
X1654314Y2220000D02*
X1659000Y2224686D01*
X1179360Y2220000D02*
X1654314D01*
X1625000Y2365000D02*
X1659000Y2331000D01*
X1812000Y1735000D02*
X1837617Y1760617D01*
X2685657Y1565657D02*
X2688180D01*
X2679858Y1603858D02*
X2680000Y1604000D01*
X2699023Y1576500D02*
X2702000D01*
X2679858Y1560000D02*
Y1603858D01*
X2680000Y1560000D02*
X2685657Y1565657D01*
X2688180D02*
X2699023Y1576500D01*
X2679858Y1527402D02*
Y1560000D01*
X2680000Y1604000D02*
Y1685500D01*
X2368833Y1358833D02*
X2610000Y1600000D01*
X2328833Y1358833D02*
X2368833D01*
X2295000Y1325000D02*
X2328833Y1358833D01*
X2382896Y1452000D02*
X2396544D01*
X2382298Y1452598D02*
X2382896Y1452000D01*
X2396544D02*
X2455000Y1510456D01*
X2380006Y1452598D02*
X2382298D01*
X2455000Y1510456D02*
Y1779820D01*
X2433000Y1300000D02*
X2458000Y1325000D01*
X2603678D01*
X2433000Y1169686D02*
Y1300000D01*
X2395000Y1206070D02*
Y1301117D01*
X2394796Y1205866D02*
X2395000Y1206070D01*
X2775000Y1605476D02*
Y1678448D01*
X2655000Y1509858D02*
Y1829442D01*
Y1509858D02*
X2679858Y1485000D01*
Y1685500D02*
Y1847942D01*
X2603678Y1325000D02*
X2628678Y1350000D01*
X2080152Y1528000D02*
X2110000D01*
X1785362Y1480378D02*
X2096936D01*
X2102000Y1475314D01*
X1780298D02*
X1785362Y1480378D01*
X2059000Y1499622D02*
X2230622D01*
X2068000Y1705710D02*
X2117290Y1755000D01*
X2068000Y1589478D02*
Y1705710D01*
X2059000Y1580478D02*
X2068000Y1589478D01*
X2059000Y1499622D02*
Y1580478D01*
X2230622Y1499622D02*
X2295000Y1564000D01*
X2117290Y1755000D02*
Y1853710D01*
X2054562Y1382333D02*
Y1452598D01*
X875552Y1330552D02*
X875824D01*
X875000Y1330000D02*
X875552Y1330552D01*
X875824D02*
X997870Y1452598D01*
X1129410D01*
X1092063Y1208173D02*
Y1256897D01*
Y1208173D02*
X1094370Y1205866D01*
X825000Y2105000D02*
X1046078D01*
X1134056Y2219882D02*
X1179242D01*
X1100000D02*
X1134056D01*
X1179242D02*
X1179360Y2220000D01*
X1190694Y1782421D02*
X1190695D01*
X1188115Y1785000D02*
X1190694Y1782421D01*
X1140000Y1785000D02*
X1188115D01*
X2354416Y1382333D02*
Y1452598D01*
X2654268Y1382333D02*
Y1452598D01*
X1822300Y1658228D02*
X1823368Y1657159D01*
X1739570Y1658228D02*
X1822300D01*
X1812118Y1683820D02*
X1883222Y1760592D01*
X1739570Y1683820D02*
X1812118D01*
X1754708Y1382333D02*
Y1452598D01*
X2411252Y1055000D02*
X2434166Y1077914D01*
X2287686Y1007500D02*
X2336500D01*
X2383686Y1055000D02*
X2411252D01*
X2336500Y1007500D02*
X2379000Y1050000D01*
Y1050314D01*
X2383686Y1055000D01*
X2387000Y1165000D02*
X2428314D01*
X2433000Y1169686D01*
X2283000Y1061000D02*
X2387000Y1165000D01*
X2473536Y1205866D02*
X2484402Y1195000D01*
X2510000D01*
X2473536Y1205866D02*
X2481166Y1213496D01*
X2755000Y1211496D02*
Y1301117D01*
X2651279Y1225217D02*
X2670630Y1205866D01*
X2651279Y1225217D02*
Y1266236D01*
X2626276Y1525000D02*
X2628678Y1527402D01*
X2605000Y1525000D02*
X2626276D01*
X2295205Y1519535D02*
X2325936D01*
X2328826Y1522425D01*
Y1527402D01*
X2375314Y1564000D02*
X2380000Y1559314D01*
X2330000Y1564000D02*
X2375314D01*
X2330000D02*
Y1601500D01*
X2380000Y1527408D02*
X2380006Y1527402D01*
X2380000Y1527408D02*
Y1559314D01*
X2271761Y1832658D02*
X2271762Y1832658D01*
Y1760236D02*
Y1832658D01*
Y1760236D02*
X2271762Y1760236D01*
X2297352D02*
Y1790314D01*
X2302038Y1795000D02*
X2384000D01*
X2297352Y1790314D02*
X2302038Y1795000D01*
X2384000D02*
X2429000Y1840000D01*
X2271762Y1599888D02*
Y1687402D01*
X2246170Y1611330D02*
Y1687402D01*
X2271762Y1599888D02*
X2273162Y1598488D01*
X2246170Y1611330D02*
X2246500Y1611000D01*
X1804000Y1786182D02*
X1885843Y1868025D01*
X1990555Y1811772D02*
X2021203Y1842420D01*
X2028983D01*
X1971854Y1811772D02*
X1990555D01*
X2028983Y1842420D02*
X2031088Y1844525D01*
X2102975Y1868025D02*
X2117290Y1853710D01*
X1885843Y1868025D02*
X2102975D01*
X2059000Y1795000D02*
Y1826000D01*
X2050000Y1786000D02*
X2059000Y1795000D01*
X1300000Y1875000D02*
X1485000D01*
X1256480Y1831480D02*
X1300000Y1875000D01*
X1256480Y1795960D02*
Y1831480D01*
X1485000Y1875000D02*
X1510000Y1900000D01*
X1319895Y1829895D02*
X1322000Y1832000D01*
X1279338Y1805039D02*
X1304194Y1829895D01*
X1319895D01*
X1253748Y1793228D02*
X1256480Y1795960D01*
X1279338Y1793228D02*
Y1805039D01*
X2080152Y1528000D02*
Y1565152D01*
Y1527402D02*
Y1528000D01*
X1510000Y1900000D02*
X2125000D01*
X1202832Y1830365D02*
X1228158Y1805039D01*
X1191022Y1830365D02*
X1202832D01*
X1188917Y1832469D02*
X1191022Y1830365D01*
X1190695Y1782421D02*
X1263116Y1710000D01*
X1274480D01*
X1279338Y1705142D01*
Y1696772D02*
Y1705142D01*
X1232958Y1636398D02*
X1232958D01*
X1291356Y1578000D02*
X1533000D01*
X1232958Y1636398D02*
X1291356Y1578000D01*
X1228158Y1641198D02*
X1232958Y1636398D01*
X1649500Y1209330D02*
Y1265779D01*
X1646036Y1205866D02*
X1649500Y1209330D01*
X1570000Y1208570D02*
Y1301117D01*
X1567296Y1205866D02*
X1570000Y1208570D01*
X1100500Y1825500D02*
Y1986500D01*
X1079296Y1804296D02*
X1100500Y1825500D01*
X2746520Y1750000D02*
X2749410Y1752890D01*
X2725000Y1750000D02*
X2746520D01*
X2749410Y1752890D02*
Y1753252D01*
X1228158Y1793228D02*
Y1805039D01*
Y1641198D02*
Y1696772D01*
X1456677Y1383077D02*
X1458500Y1381254D01*
X1456677Y1383077D02*
Y1450775D01*
X1454854Y1452598D02*
X1456677Y1450775D01*
X1155000Y1382333D02*
Y1452598D01*
X999618Y1189854D02*
X1015630Y1205866D01*
X935070Y1189854D02*
X999618D01*
X1807508Y1205866D02*
X1843130D01*
X1791466Y1221908D02*
Y1252258D01*
Y1221908D02*
X1807508Y1205866D01*
X1882500Y1260000D02*
X1951866Y1329366D01*
X1882500Y1077914D02*
Y1260000D01*
X1817000Y1311000D02*
X1956000Y1450000D01*
X2026374D01*
X1778000Y1311000D02*
X1817000D01*
X1921870Y1205866D02*
X1941492Y1225488D01*
Y1256492D01*
X1960000Y1275000D01*
X2118964Y1268350D02*
X2133634Y1283020D01*
X2118964Y1205866D02*
Y1268350D01*
X2133634Y1283020D02*
Y1284085D01*
X1955000Y1162000D02*
X2102000Y1309000D01*
Y1475314D01*
X2204373Y1212533D02*
Y1273558D01*
X2197706Y1205866D02*
X2204373Y1212533D01*
X2749370Y1205866D02*
X2755000Y1211496D01*
X2918700Y1080000D02*
X3005000D01*
X2993237Y1023164D02*
X3056276Y1086203D01*
Y1409276D01*
X2987037Y1185037D02*
X3003000Y1201000D01*
X2188906Y2050858D02*
X2200984Y2038780D01*
X2183711Y2087664D02*
X2188906Y2082470D01*
Y2050858D02*
Y2082470D01*
X2183711Y2087664D02*
Y2090641D01*
X2159836Y2100000D02*
X2174686Y2114850D01*
X2382150D01*
X1214000Y2100000D02*
X2159836D01*
X2382150Y2114850D02*
X2476984Y2020016D01*
X1727072Y2123000D02*
X1750534Y2146462D01*
X2026570Y1525000D02*
X2028972Y1527402D01*
X2005000Y1525000D02*
X2026570D01*
X1730000Y1315686D02*
Y1451716D01*
Y1315686D02*
X1734686Y1311000D01*
X1729118Y1452598D02*
X1730000Y1451716D01*
X1726716Y1525000D02*
X1729118Y1527402D01*
X1710000Y1525000D02*
X1726716D01*
X1682000Y1560000D02*
X1733000Y1611000D01*
X1495000Y1560000D02*
X1682000D01*
X1480444Y1424556D02*
X1510000Y1395000D01*
X1411914Y1077914D02*
X1510000Y1176000D01*
Y1395000D01*
X1211686Y1452598D02*
X1429264D01*
X1207000Y1457284D02*
Y1480314D01*
Y1457284D02*
X1211686Y1452598D01*
X1370204Y1205866D02*
Y1260204D01*
X1380000Y1270000D01*
X1253342Y1205866D02*
X1291464D01*
X1411215Y1524822D02*
X1426684D01*
X1429264Y1527402D01*
X1320340Y2146500D02*
X1338540Y2164700D01*
X1380000D01*
X1079000Y2050000D02*
X1152000Y2123000D01*
X1727072D01*
X1100500Y1986500D02*
X1214000Y2100000D01*
X1060241Y2189882D02*
X1070000D01*
Y2191323D01*
X1058808Y2188449D02*
X1060241Y2189882D01*
X1058808Y2170000D02*
Y2188449D01*
X1043504Y2219882D02*
X1100000D01*
X1070000Y2191323D02*
X1098559Y2219882D01*
X1014260Y1802000D02*
X1073000D01*
X1013740Y1908740D02*
X1030000Y1925000D01*
X894508Y1908740D02*
X1013740D01*
X1046078Y2105000D02*
X1101904Y2160826D01*
X1135000Y2284780D02*
X1140842Y2278938D01*
X1135000Y2284780D02*
Y2305000D01*
X1140842Y2278938D02*
X1141930D01*
X1101904Y2160826D02*
X1141930D01*
X894508Y1593780D02*
X1029046D01*
X1085803Y1540000D02*
X1098401Y1527402D01*
X1085000Y1540000D02*
X1085803D01*
X1029046Y1593780D02*
X1084777Y1538049D01*
X1098401Y1527402D02*
X1129410D01*
X1108504Y1077914D02*
X1180590Y1150000D01*
Y1452598D01*
X2993237Y1000815D02*
Y1023164D01*
X3131300Y1380000D02*
X3206824D01*
X2817000D02*
X2918700D01*
X2923737Y1185037D02*
X2987037D01*
X2791000Y1354000D02*
X2817000Y1380000D01*
X3131300Y1280000D02*
X3206824D01*
X3131300Y1180000D02*
X3206824D01*
X2918700D02*
X2923737Y1185037D01*
X3131300Y1080000D02*
X3206824D01*
X2095000Y1660848D02*
X2135290Y1701138D01*
X2080152Y1565152D02*
X2095000Y1580000D01*
Y1660848D01*
X990519Y1758688D02*
Y1778259D01*
X1014260Y1802000D01*
X983091Y1751260D02*
X990519Y1758688D01*
X894508Y1751260D02*
X983091D01*
X3020000Y1860000D02*
Y2075000D01*
X2985000Y2110000D02*
X3020000Y2075000D01*
X2835828Y2010238D02*
X2986500D01*
X3116300Y2110238D02*
X3191824D01*
X3116300Y2310238D02*
X3191824D01*
X3116300Y2010238D02*
X3191824D01*
X2945000Y2110000D02*
X2985000D01*
X3116300Y2210238D02*
X3191824D01*
X2984000Y2310238D02*
X3041276Y2252962D01*
X2770000Y1983000D02*
X2785000Y1998000D01*
X2770000Y1773130D02*
Y1983000D01*
X2770300Y1733674D02*
Y1772831D01*
X2770000Y1733374D02*
X2770300Y1733674D01*
X2770000Y1773130D02*
X2770300Y1772831D01*
X2749410Y1704410D02*
X2770000Y1725000D01*
Y1733374D01*
X2295000Y1564000D02*
X2330000D01*
X1653000Y1811772D02*
X1739570D01*
X1902000Y1604000D02*
X1912295Y1614295D01*
X1836734Y1587500D02*
X1892000Y1642766D01*
X1912295Y1702609D02*
X1919686Y1710000D01*
X1892000Y1718420D02*
X1908580Y1735000D01*
X1912295Y1614295D02*
Y1702609D01*
X1892000Y1642766D02*
Y1718420D01*
X1919686Y1710000D02*
X1971264D01*
X1180590Y1528000D02*
X1222000D01*
X1129410Y1480314D02*
X1134096Y1485000D01*
X1202314D01*
X1207000Y1480314D01*
X1129410Y1452598D02*
Y1480314D01*
X1533000Y1578000D02*
X1610000Y1655000D01*
X1579500Y1685500D02*
Y1833000D01*
X1579500Y1685500D02*
X1610000Y1655000D01*
X1664410Y1709410D01*
X1739570D01*
X2025314Y1786182D02*
X2030000Y1781496D01*
Y1662914D02*
Y1781496D01*
X1971854Y1658228D02*
X2025314D01*
X2030000Y1662914D01*
X1971854Y1786182D02*
X2025314D01*
X1780298Y1452598D02*
Y1475314D01*
X1734686Y1311000D02*
X1778000D01*
X1480444Y1424556D02*
Y1452598D01*
X1482243Y1547243D02*
X1495000Y1560000D01*
X1480444Y1527402D02*
X1482243Y1529201D01*
Y1547243D01*
X2135290Y1701138D02*
Y1889710D01*
X2125000Y1900000D02*
X2135290Y1889710D01*
X1767610Y1499622D02*
X1832482D01*
X1795048Y1587500D02*
X1836734D01*
X1787874Y1554870D02*
X1853870D01*
X1759408Y1507823D02*
X1767610Y1499622D01*
X1759408Y1551860D02*
X1795048Y1587500D01*
X1783188Y1550184D02*
X1787874Y1554870D01*
X1783188Y1530292D02*
Y1550184D01*
X1853870Y1554870D02*
X1879188Y1580188D01*
X1780298Y1527402D02*
X1808000D01*
X1759408Y1507823D02*
Y1551860D01*
X1780298Y1527402D02*
X1783188Y1530292D01*
X1911422Y1580188D02*
X1930295Y1599061D01*
Y1671744D01*
X1939638Y1681086D01*
X1879188Y1580188D02*
X1911422D01*
X1971264Y1710000D02*
X1971854Y1709410D01*
X1969120Y1681086D02*
X1971854Y1683820D01*
X1939638Y1681086D02*
X1969120D01*
X1994686Y2205000D02*
X2190314D01*
X2195000Y2209686D02*
Y2269016D01*
X1990000Y2209686D02*
Y2273386D01*
Y2209686D02*
X1994686Y2205000D01*
X2190314D02*
X2195000Y2209686D01*
X1988386Y2275000D02*
X1990000Y2273386D01*
X2195000Y2269016D02*
X2200984Y2275000D01*
X2026374Y1450000D02*
X2028972Y1452598D01*
X2301000Y1420000D02*
X2324140D01*
X2181000Y1300000D02*
X2301000Y1420000D01*
X2328826Y1424686D02*
Y1452598D01*
X2324140Y1420000D02*
X2328826Y1424686D01*
X2679858Y1309686D02*
Y1452598D01*
X2605922Y1300314D02*
X2610608Y1305000D01*
X2675172D02*
X2679858Y1309686D01*
X2605922Y1213922D02*
Y1300314D01*
X2610608Y1305000D02*
X2675172D01*
X2280000Y2091000D02*
X2458984Y1912016D01*
Y1821484D02*
Y1912016D01*
X774686Y1515040D02*
X894508D01*
X2785000Y2075000D02*
X2820238Y2110238D01*
X1951866Y1329366D02*
X1983492D01*
X2283000Y1012186D02*
X2287686Y1007500D01*
X2283000Y1012186D02*
Y1061000D01*
X2307000Y1052000D02*
X2400000Y1145000D01*
X2307000Y1031000D02*
Y1052000D01*
X2820238Y2110238D02*
X2903700D01*
X2297352Y1696000D02*
X2333500D01*
X1739000Y1735000D02*
Y1760592D01*
X2903700Y2310238D02*
X2984000D01*
X1180590Y1527402D02*
Y1528000D01*
X1733000Y1611000D02*
X1827000D01*
X1606666Y1077914D02*
X1661086D01*
X1704614Y1034386D01*
X1926000D01*
X1955000Y1070000D01*
Y1162000D01*
X2455000Y1779820D02*
X2476984Y1801804D01*
Y2020016D01*
X2537000Y1145000D02*
X2605922Y1213922D01*
X2400000Y1145000D02*
X2537000D01*
X2841238Y2210238D02*
X2903700D01*
X2050000Y1649000D02*
Y1786000D01*
X1933000Y1532000D02*
X2050000Y1649000D01*
X1864860Y1532000D02*
X1933000D01*
X1832482Y1499622D02*
X1864860Y1532000D01*
X1908580Y1735000D02*
X1971854D01*
X1883222Y1760592D02*
X1971854D01*
Y1628854D02*
Y1658228D01*
X1958000Y1615000D02*
X1971854Y1628854D01*
X1480444Y1501178D02*
Y1527402D01*
Y1501178D02*
X1529000Y1452622D01*
Y1074000D02*
Y1452622D01*
Y1074000D02*
X1613500Y989500D01*
X2714500D01*
X2825000Y1100000D01*
Y1255000D01*
X2850000Y1280000D01*
X2918700D01*
X2297352Y1687402D02*
Y1696000D01*
X2333500D02*
X2458984Y1821484D01*
X1739570Y1786182D02*
X1804000D01*
X1739570Y1735000D02*
X1812000D01*
X894508Y1830000D02*
X1050000D01*
X1079000Y1859000D01*
Y2050000D01*
X2679858Y1452598D02*
Y1485000D01*
X2785000Y1998000D02*
Y2075000D01*
X2749410Y1678448D02*
Y1704410D01*
X2080152Y1331152D02*
Y1452598D01*
X2050000Y1301000D02*
X2080152Y1331152D01*
X2011858Y1301000D02*
X2050000D01*
X1983492Y1329366D02*
X2011858Y1301000D01*
X2800590Y1476590D02*
Y1678448D01*
X2710000Y1386000D02*
X2800590Y1476590D01*
X2710000Y1077914D02*
Y1386000D01*
X2628678Y1350000D02*
Y1452598D01*
X1330834Y1077914D02*
X1411914D01*
X2158336D02*
Y1253336D01*
X2181000Y1276000D01*
Y1300000D01*
X2800590Y1753252D02*
Y1975000D01*
X2835828Y2010238D01*
X1055000Y1077914D02*
X1108504D01*
X1739000Y1760592D02*
X1739570D01*
X1739000Y1735000D02*
X1739570D01*
X1335972Y2282812D02*
X1380000D01*
X1901772Y2275000D02*
Y2328872D01*
D26*
X2610000Y2230000D02*
D03*
X2612966Y1952598D02*
D03*
Y2054962D02*
D03*
X2200000Y2360000D02*
D03*
X3016920Y1446125D02*
D03*
X2876000Y1716000D02*
D03*
X855000Y2290000D02*
D03*
X1615000Y2165000D02*
D03*
X1792034Y1952598D02*
D03*
Y2054962D02*
D03*
X1837617Y1760617D02*
D03*
X1495000Y2165000D02*
D03*
X2702000Y1576500D02*
D03*
X2610000Y1600000D02*
D03*
X2395000Y1301117D02*
D03*
X2775000Y1605476D02*
D03*
X2679858Y1685500D02*
D03*
X2354416Y1382333D02*
D03*
X2295000Y1325000D02*
D03*
X2110000Y1528000D02*
D03*
X2054562Y1382333D02*
D03*
X875824Y1330552D02*
D03*
X1092063Y1256897D02*
D03*
X825000Y2105000D02*
D03*
X1140000Y1785000D02*
D03*
X2654268Y1382333D02*
D03*
X1823368Y1657159D02*
D03*
X1754708Y1382333D02*
D03*
X2515000Y1195000D02*
D03*
X2755000Y1301117D02*
D03*
X2651279Y1266236D02*
D03*
X2605000Y1525000D02*
D03*
X2295205Y1519535D02*
D03*
X2330000Y1601500D02*
D03*
X2271761Y1832658D02*
D03*
X2273162Y1598488D02*
D03*
X2246500Y1611000D02*
D03*
X2031088Y1844525D02*
D03*
X2059000Y1826000D02*
D03*
X1322000Y1832000D02*
D03*
X1188917Y1832469D02*
D03*
X1649500Y1265779D02*
D03*
X1570000Y1301117D02*
D03*
X2725000Y1750000D02*
D03*
X1458500Y1381254D02*
D03*
X1155000Y1382333D02*
D03*
X935070Y1189854D02*
D03*
X1791466Y1252258D02*
D03*
X1960000Y1275000D02*
D03*
X2133634Y1284085D02*
D03*
X2204373Y1273558D02*
D03*
X3087842Y1235224D02*
D03*
X3003000Y1201000D02*
D03*
X2183711Y2090641D02*
D03*
X2120000Y1600000D02*
D03*
X2005000Y1525000D02*
D03*
X1710000D02*
D03*
X1484174Y1215000D02*
D03*
X1380000Y1273560D02*
D03*
X1253342Y1205866D02*
D03*
X1411215Y1524822D02*
D03*
X1018901Y1288988D02*
D03*
X1320340Y2146500D02*
D03*
X1230000Y2180000D02*
D03*
X1058808Y2170000D02*
D03*
X1073000Y1802000D02*
D03*
X1030000Y1925000D02*
D03*
X922152Y2051207D02*
D03*
X1625000Y2050000D02*
D03*
X1345000Y1930000D02*
D03*
X1135000Y2305000D02*
D03*
X1084777Y1538049D02*
D03*
X3025150Y1021535D02*
D03*
X2993237Y1000815D02*
D03*
X3206824Y1380000D02*
D03*
X2791000Y1354000D02*
D03*
X3206824Y1280000D02*
D03*
Y1180000D02*
D03*
Y1080000D02*
D03*
X2986500Y2010238D02*
D03*
X3191824Y2310238D02*
D03*
Y2110238D02*
D03*
Y2010238D02*
D03*
Y2210238D02*
D03*
X1348015Y1670090D02*
D03*
X1653000Y1811772D02*
D03*
X2006594Y1093978D02*
D03*
X1535405Y1613639D02*
D03*
X1382034Y1623820D02*
D03*
X2280000Y2091000D02*
D03*
X2307000Y1031000D02*
D03*
X1222000Y1528000D02*
D03*
X1827000Y1611000D02*
D03*
X1808000Y1527402D02*
D03*
X1579500Y1833000D02*
D03*
X1958000Y1615000D02*
D03*
X1902000Y1604000D02*
D03*
X2429000Y1840000D02*
D03*
X1883222Y1760592D02*
D03*
X2418000Y2355000D02*
D03*
X2660000Y1871000D02*
D03*
X2167966Y1795000D02*
D03*
X1778000Y1311000D02*
D03*
X1335972Y2282812D02*
D03*
X2615790Y1090042D02*
D03*
X1901772Y2328872D02*
D03*
X1172966Y1618818D02*
D03*
X1760348Y1090042D02*
D03*
X1162966Y1952598D02*
D03*
X2273614Y1090042D02*
D03*
X2227034Y1928978D02*
D03*
X2489934Y1751024D02*
D03*
X2372034Y2051026D02*
D03*
X2394028Y2284056D02*
D03*
X2757966Y2054962D02*
D03*
D27*
X725000Y1045000D02*
D03*
Y2345000D02*
D03*
X3030000Y1695000D02*
D03*
%TF.MD5,18f124797a497e1992c66c886e6dc002*%
M02*
