%TF.GenerationSoftware,Altium Limited,Altium Designer,21.1.1 (26)*%
G04 Layer_Color=16711935*
%FSLAX26Y26*%
%MOIN*%
%TF.SameCoordinates,5075B572-C75D-40FD-B4B0-80468548393A*%
%TF.FilePolarity,Positive*%
%TF.FileFunction,Other,Mechanical_1*%
%TF.Part,Single*%
G01*
G75*
%TA.AperFunction,NonConductor*%
%ADD73C,0.007000*%
G36*
X1274354Y1761547D02*
X1254240Y1748090D01*
X1274354D01*
Y1744845D01*
X1248749D01*
Y1748318D01*
X1268842Y1761755D01*
X1248749D01*
Y1765000D01*
X1274354D01*
Y1761547D01*
D02*
G37*
G36*
Y1729848D02*
X1274333Y1729598D01*
Y1728995D01*
X1274312Y1728662D01*
X1274270Y1727914D01*
X1274187Y1727165D01*
X1274104Y1726437D01*
X1274042Y1726104D01*
X1273979Y1725792D01*
Y1725771D01*
X1273958Y1725688D01*
X1273917Y1725584D01*
X1273875Y1725418D01*
X1273834Y1725230D01*
X1273750Y1725002D01*
X1273667Y1724773D01*
X1273563Y1724502D01*
X1273314Y1723899D01*
X1273002Y1723275D01*
X1272606Y1722630D01*
X1272149Y1722027D01*
X1272128Y1722006D01*
X1272066Y1721944D01*
X1271982Y1721840D01*
X1271837Y1721694D01*
X1271670Y1721528D01*
X1271462Y1721341D01*
X1271234Y1721112D01*
X1270963Y1720883D01*
X1270651Y1720654D01*
X1270318Y1720405D01*
X1269965Y1720155D01*
X1269570Y1719906D01*
X1269154Y1719656D01*
X1268717Y1719427D01*
X1268238Y1719219D01*
X1267760Y1719011D01*
X1267739Y1718990D01*
X1267635Y1718970D01*
X1267490Y1718907D01*
X1267282Y1718845D01*
X1267032Y1718782D01*
X1266741Y1718678D01*
X1266387Y1718595D01*
X1266013Y1718491D01*
X1265576Y1718408D01*
X1265098Y1718304D01*
X1264598Y1718221D01*
X1264078Y1718158D01*
X1263517Y1718075D01*
X1262934Y1718034D01*
X1262310Y1718013D01*
X1261686Y1717992D01*
X1261645D01*
X1261562D01*
X1261395D01*
X1261187D01*
X1260938Y1718013D01*
X1260646Y1718034D01*
X1260314Y1718054D01*
X1259939Y1718075D01*
X1259544Y1718117D01*
X1259128Y1718158D01*
X1258275Y1718283D01*
X1257381Y1718450D01*
X1256507Y1718678D01*
X1256486D01*
X1256403Y1718699D01*
X1256299Y1718741D01*
X1256133Y1718803D01*
X1255946Y1718866D01*
X1255717Y1718949D01*
X1255467Y1719053D01*
X1255197Y1719157D01*
X1254614Y1719406D01*
X1253990Y1719698D01*
X1253366Y1720051D01*
X1252784Y1720426D01*
X1252763Y1720446D01*
X1252722Y1720467D01*
X1252638Y1720530D01*
X1252534Y1720613D01*
X1252410Y1720717D01*
X1252264Y1720821D01*
X1251931Y1721112D01*
X1251557Y1721466D01*
X1251182Y1721861D01*
X1250808Y1722298D01*
X1250454Y1722755D01*
Y1722776D01*
X1250413Y1722818D01*
X1250371Y1722880D01*
X1250309Y1722984D01*
X1250246Y1723109D01*
X1250163Y1723254D01*
X1250080Y1723421D01*
X1249976Y1723608D01*
X1249872Y1723816D01*
X1249768Y1724066D01*
X1249560Y1724586D01*
X1249352Y1725168D01*
X1249165Y1725813D01*
Y1725834D01*
X1249144Y1725896D01*
X1249123Y1726000D01*
X1249102Y1726125D01*
X1249061Y1726291D01*
X1249040Y1726499D01*
X1248998Y1726728D01*
X1248957Y1726998D01*
X1248915Y1727290D01*
X1248874Y1727602D01*
X1248853Y1727934D01*
X1248811Y1728309D01*
X1248770Y1729078D01*
X1248749Y1729931D01*
Y1739146D01*
X1274354D01*
Y1729848D01*
D02*
G37*
G36*
X1249435Y1714997D02*
X1249768Y1714955D01*
X1250142Y1714893D01*
X1250517Y1714789D01*
X1250912Y1714664D01*
X1250933D01*
X1250995Y1714643D01*
X1251078Y1714602D01*
X1251203Y1714539D01*
X1251370Y1714477D01*
X1251557Y1714394D01*
X1251765Y1714290D01*
X1251994Y1714165D01*
X1252514Y1713874D01*
X1253096Y1713520D01*
X1253699Y1713104D01*
X1254323Y1712605D01*
X1254344Y1712584D01*
X1254406Y1712542D01*
X1254490Y1712459D01*
X1254614Y1712334D01*
X1254781Y1712189D01*
X1254968Y1712002D01*
X1255176Y1711794D01*
X1255426Y1711544D01*
X1255696Y1711274D01*
X1256008Y1710962D01*
X1256320Y1710629D01*
X1256653Y1710254D01*
X1257027Y1709859D01*
X1257402Y1709443D01*
X1257776Y1708965D01*
X1258192Y1708486D01*
X1258213Y1708466D01*
X1258234Y1708445D01*
X1258275Y1708382D01*
X1258338Y1708299D01*
X1258525Y1708091D01*
X1258754Y1707821D01*
X1259045Y1707467D01*
X1259398Y1707093D01*
X1259773Y1706677D01*
X1260168Y1706219D01*
X1260605Y1705762D01*
X1261042Y1705283D01*
X1261499Y1704805D01*
X1261957Y1704347D01*
X1262394Y1703910D01*
X1262830Y1703515D01*
X1263246Y1703162D01*
X1263642Y1702850D01*
X1263662Y1702829D01*
X1263725Y1702787D01*
X1263829Y1702704D01*
X1263974Y1702621D01*
X1264162Y1702517D01*
X1264370Y1702392D01*
X1264598Y1702246D01*
X1264869Y1702101D01*
X1265430Y1701830D01*
X1266075Y1701602D01*
X1266408Y1701518D01*
X1266741Y1701435D01*
X1267074Y1701394D01*
X1267406Y1701373D01*
X1267427D01*
X1267490D01*
X1267594D01*
X1267718Y1701394D01*
X1267885Y1701414D01*
X1268072Y1701435D01*
X1268280Y1701477D01*
X1268509Y1701539D01*
X1269008Y1701706D01*
X1269258Y1701810D01*
X1269528Y1701934D01*
X1269798Y1702101D01*
X1270069Y1702288D01*
X1270318Y1702496D01*
X1270568Y1702725D01*
X1270589Y1702746D01*
X1270630Y1702787D01*
X1270693Y1702870D01*
X1270776Y1702974D01*
X1270859Y1703099D01*
X1270984Y1703266D01*
X1271088Y1703453D01*
X1271213Y1703661D01*
X1271338Y1703890D01*
X1271442Y1704160D01*
X1271566Y1704451D01*
X1271650Y1704742D01*
X1271733Y1705075D01*
X1271795Y1705429D01*
X1271837Y1705803D01*
X1271858Y1706198D01*
Y1706406D01*
X1271837Y1706573D01*
X1271816Y1706760D01*
X1271795Y1706989D01*
X1271754Y1707238D01*
X1271691Y1707509D01*
X1271525Y1708091D01*
X1271421Y1708382D01*
X1271275Y1708694D01*
X1271130Y1708986D01*
X1270942Y1709277D01*
X1270734Y1709568D01*
X1270485Y1709838D01*
X1270464Y1709859D01*
X1270422Y1709901D01*
X1270339Y1709963D01*
X1270235Y1710046D01*
X1270090Y1710150D01*
X1269923Y1710275D01*
X1269736Y1710379D01*
X1269507Y1710504D01*
X1269237Y1710650D01*
X1268966Y1710754D01*
X1268654Y1710878D01*
X1268322Y1710982D01*
X1267947Y1711066D01*
X1267573Y1711128D01*
X1267157Y1711170D01*
X1266720Y1711190D01*
X1267053Y1714414D01*
X1267074D01*
X1267094D01*
X1267219Y1714394D01*
X1267406Y1714373D01*
X1267635Y1714331D01*
X1267947Y1714269D01*
X1268301Y1714206D01*
X1268675Y1714102D01*
X1269091Y1713978D01*
X1269528Y1713853D01*
X1269986Y1713666D01*
X1270422Y1713478D01*
X1270880Y1713229D01*
X1271338Y1712979D01*
X1271774Y1712667D01*
X1272170Y1712314D01*
X1272544Y1711939D01*
X1272565Y1711918D01*
X1272627Y1711835D01*
X1272731Y1711710D01*
X1272835Y1711544D01*
X1272981Y1711336D01*
X1273147Y1711066D01*
X1273314Y1710754D01*
X1273501Y1710400D01*
X1273688Y1710005D01*
X1273854Y1709568D01*
X1274021Y1709090D01*
X1274166Y1708570D01*
X1274291Y1708029D01*
X1274374Y1707426D01*
X1274437Y1706802D01*
X1274458Y1706136D01*
Y1705970D01*
X1274437Y1705782D01*
X1274416Y1705533D01*
X1274395Y1705221D01*
X1274354Y1704867D01*
X1274291Y1704451D01*
X1274208Y1704035D01*
X1274083Y1703578D01*
X1273958Y1703099D01*
X1273792Y1702621D01*
X1273584Y1702122D01*
X1273355Y1701643D01*
X1273085Y1701186D01*
X1272752Y1700728D01*
X1272398Y1700312D01*
X1272378Y1700291D01*
X1272315Y1700208D01*
X1272190Y1700104D01*
X1272024Y1699979D01*
X1271837Y1699813D01*
X1271587Y1699626D01*
X1271317Y1699438D01*
X1271005Y1699230D01*
X1270651Y1699022D01*
X1270277Y1698835D01*
X1269861Y1698648D01*
X1269403Y1698482D01*
X1268925Y1698357D01*
X1268426Y1698232D01*
X1267906Y1698170D01*
X1267344Y1698149D01*
X1267323D01*
X1267282D01*
X1267198D01*
X1267074D01*
X1266949Y1698170D01*
X1266782Y1698190D01*
X1266595Y1698211D01*
X1266387Y1698232D01*
X1265930Y1698315D01*
X1265410Y1698419D01*
X1264869Y1698586D01*
X1264307Y1698794D01*
X1264286D01*
X1264245Y1698814D01*
X1264162Y1698856D01*
X1264058Y1698918D01*
X1263912Y1698981D01*
X1263746Y1699064D01*
X1263579Y1699168D01*
X1263371Y1699293D01*
X1262893Y1699584D01*
X1262373Y1699938D01*
X1261790Y1700374D01*
X1261187Y1700874D01*
X1261166Y1700894D01*
X1261104Y1700936D01*
X1261021Y1701019D01*
X1260896Y1701144D01*
X1260709Y1701310D01*
X1260522Y1701518D01*
X1260272Y1701747D01*
X1260002Y1702018D01*
X1259710Y1702330D01*
X1259357Y1702683D01*
X1259003Y1703078D01*
X1258587Y1703515D01*
X1258150Y1703994D01*
X1257693Y1704514D01*
X1257194Y1705096D01*
X1256674Y1705699D01*
X1256653Y1705741D01*
X1256570Y1705824D01*
X1256445Y1705970D01*
X1256299Y1706157D01*
X1256091Y1706386D01*
X1255883Y1706635D01*
X1255634Y1706926D01*
X1255384Y1707218D01*
X1254843Y1707821D01*
X1254323Y1708424D01*
X1254074Y1708694D01*
X1253824Y1708944D01*
X1253637Y1709173D01*
X1253450Y1709339D01*
X1253408Y1709381D01*
X1253304Y1709464D01*
X1253138Y1709610D01*
X1252930Y1709797D01*
X1252680Y1710005D01*
X1252389Y1710234D01*
X1252077Y1710442D01*
X1251765Y1710650D01*
Y1698107D01*
X1248749D01*
Y1715018D01*
X1248770D01*
X1248790D01*
X1248853D01*
X1248936D01*
X1249165D01*
X1249435Y1714997D01*
D02*
G37*
%LPC*%
G36*
X1271338Y1735755D02*
X1251765D01*
Y1729890D01*
X1251786Y1729682D01*
Y1729432D01*
X1251806Y1729162D01*
X1251827Y1728850D01*
X1251869Y1728226D01*
X1251952Y1727560D01*
X1252077Y1726915D01*
X1252139Y1726603D01*
X1252222Y1726333D01*
Y1726312D01*
X1252243Y1726270D01*
X1252264Y1726187D01*
X1252306Y1726104D01*
X1252368Y1725979D01*
X1252410Y1725834D01*
X1252576Y1725501D01*
X1252763Y1725147D01*
X1252992Y1724752D01*
X1253262Y1724378D01*
X1253554Y1724045D01*
X1253574Y1724024D01*
X1253616Y1723982D01*
X1253678Y1723920D01*
X1253782Y1723837D01*
X1253886Y1723754D01*
X1254053Y1723629D01*
X1254219Y1723504D01*
X1254406Y1723358D01*
X1254635Y1723213D01*
X1254885Y1723067D01*
X1255134Y1722901D01*
X1255426Y1722755D01*
X1255738Y1722589D01*
X1256070Y1722443D01*
X1256798Y1722173D01*
X1256819D01*
X1256902Y1722152D01*
X1257006Y1722110D01*
X1257173Y1722069D01*
X1257360Y1722006D01*
X1257589Y1721965D01*
X1257880Y1721902D01*
X1258171Y1721819D01*
X1258525Y1721757D01*
X1258899Y1721694D01*
X1259294Y1721653D01*
X1259731Y1721590D01*
X1260210Y1721549D01*
X1260688Y1721507D01*
X1261187Y1721486D01*
X1261728D01*
X1261749D01*
X1261770D01*
X1261832D01*
X1261915D01*
X1262123D01*
X1262394Y1721507D01*
X1262726Y1721528D01*
X1263122Y1721549D01*
X1263538Y1721590D01*
X1264016Y1721653D01*
X1264494Y1721715D01*
X1264994Y1721819D01*
X1265514Y1721923D01*
X1266034Y1722048D01*
X1266533Y1722194D01*
X1267011Y1722381D01*
X1267490Y1722589D01*
X1267906Y1722818D01*
X1267926Y1722838D01*
X1268010Y1722880D01*
X1268114Y1722942D01*
X1268259Y1723046D01*
X1268426Y1723171D01*
X1268634Y1723338D01*
X1268842Y1723504D01*
X1269070Y1723712D01*
X1269320Y1723941D01*
X1269570Y1724170D01*
X1270048Y1724731D01*
X1270256Y1725022D01*
X1270464Y1725334D01*
X1270651Y1725667D01*
X1270797Y1726021D01*
Y1726042D01*
X1270818Y1726083D01*
X1270838Y1726166D01*
X1270880Y1726270D01*
X1270922Y1726416D01*
X1270963Y1726603D01*
X1271026Y1726832D01*
X1271067Y1727082D01*
X1271109Y1727352D01*
X1271171Y1727685D01*
X1271213Y1728038D01*
X1271254Y1728434D01*
X1271296Y1728870D01*
X1271317Y1729328D01*
X1271338Y1729848D01*
Y1735755D01*
D02*
G37*
%LPD*%
D73*
X1795713Y1754987D02*
Y1721665D01*
X1802377Y1715000D01*
X1815706D01*
X1822371Y1721665D01*
Y1754987D01*
X1862358Y1715000D02*
X1835700D01*
X1862358Y1741658D01*
Y1748323D01*
X1855693Y1754987D01*
X1842364D01*
X1835700Y1748323D01*
%TF.MD5,306d37b7d237e3a9dd5a83a37188791c*%
M02*
