%TF.GenerationSoftware,Altium Limited,Altium Designer,21.1.1 (26)*%
G04 Layer_Color=2752767*
%FSLAX26Y26*%
%MOIN*%
%TF.SameCoordinates,5075B572-C75D-40FD-B4B0-80468548393A*%
%TF.FilePolarity,Positive*%
%TF.FileFunction,Drawing*%
%TF.Part,Single*%
G01*
G75*
%TA.AperFunction,NonConductor*%
%ADD52C,0.005000*%
%ADD78C,0.006667*%
D52*
X2996920Y1426125D02*
Y1466125D01*
X3036920D01*
Y1426125D01*
X2996920D01*
X2856000Y1696000D02*
Y1736000D01*
X2896000D01*
Y1696000D01*
X2856000D01*
X835000Y2270000D02*
Y2310000D01*
X875000D01*
Y2270000D01*
X835000D01*
X1595000Y2145000D02*
Y2185000D01*
X1635000D01*
Y2145000D01*
X1595000D01*
X1772034Y1932598D02*
Y1972598D01*
X1812034D01*
Y1932598D01*
X1772034D01*
Y2034962D02*
Y2074962D01*
X1812034D01*
Y2034962D01*
X1772034D01*
X1817617Y1740617D02*
Y1780617D01*
X1857617D01*
Y1740617D01*
X1817617D01*
X1475000Y2145000D02*
Y2185000D01*
X1515000D01*
Y2145000D01*
X1475000D01*
X2682000Y1556500D02*
Y1596500D01*
X2722000D01*
Y1556500D01*
X2682000D01*
X2590000Y1580000D02*
Y1620000D01*
X2630000D01*
Y1580000D01*
X2590000D01*
X2375000Y1281117D02*
Y1321117D01*
X2415000D01*
Y1281117D01*
X2375000D01*
X2755000Y1585476D02*
Y1625476D01*
X2795000D01*
Y1585476D01*
X2755000D01*
X2659858Y1665500D02*
Y1705500D01*
X2699858D01*
Y1665500D01*
X2659858D01*
X2334416Y1362333D02*
Y1402333D01*
X2374416D01*
Y1362333D01*
X2334416D01*
X2275000Y1305000D02*
Y1345000D01*
X2315000D01*
Y1305000D01*
X2275000D01*
X2090000Y1508000D02*
Y1548000D01*
X2130000D01*
Y1508000D01*
X2090000D01*
X2034562Y1362333D02*
Y1402333D01*
X2074562D01*
Y1362333D01*
X2034562D01*
X855824Y1310552D02*
Y1350552D01*
X895824D01*
Y1310552D01*
X855824D01*
X1072063Y1236897D02*
Y1276897D01*
X1112063D01*
Y1236897D01*
X1072063D01*
X805000Y2085000D02*
Y2125000D01*
X845000D01*
Y2085000D01*
X805000D01*
X1120000Y1765000D02*
Y1805000D01*
X1160000D01*
Y1765000D01*
X1120000D01*
X2634268Y1362333D02*
Y1402333D01*
X2674268D01*
Y1362333D01*
X2634268D01*
X1803368Y1637159D02*
Y1677159D01*
X1843368D01*
Y1637159D01*
X1803368D01*
X1734708Y1362333D02*
Y1402333D01*
X1774708D01*
Y1362333D01*
X1734708D01*
X2495000Y1175000D02*
Y1215000D01*
X2535000D01*
Y1175000D01*
X2495000D01*
X2735000Y1281117D02*
Y1321117D01*
X2775000D01*
Y1281117D01*
X2735000D01*
X2631279Y1246236D02*
Y1286236D01*
X2671279D01*
Y1246236D01*
X2631279D01*
X2585000Y1505000D02*
Y1545000D01*
X2625000D01*
Y1505000D01*
X2585000D01*
X2275205Y1499535D02*
Y1539535D01*
X2315205D01*
Y1499535D01*
X2275205D01*
X2310000Y1581500D02*
Y1621500D01*
X2350000D01*
Y1581500D01*
X2310000D01*
X2251761Y1812658D02*
Y1852658D01*
X2291761D01*
Y1812658D01*
X2251761D01*
X2253162Y1578488D02*
Y1618488D01*
X2293162D01*
Y1578488D01*
X2253162D01*
X2226500Y1591000D02*
Y1631000D01*
X2266500D01*
Y1591000D01*
X2226500D01*
X2011088Y1824525D02*
Y1864525D01*
X2051088D01*
Y1824525D01*
X2011088D01*
X2039000Y1806000D02*
Y1846000D01*
X2079000D01*
Y1806000D01*
X2039000D01*
X1302000Y1812000D02*
Y1852000D01*
X1342000D01*
Y1812000D01*
X1302000D01*
X1168917Y1812469D02*
Y1852469D01*
X1208917D01*
Y1812469D01*
X1168917D01*
X1629500Y1245779D02*
Y1285779D01*
X1669500D01*
Y1245779D01*
X1629500D01*
X1550000Y1281117D02*
Y1321117D01*
X1590000D01*
Y1281117D01*
X1550000D01*
X2705000Y1730000D02*
Y1770000D01*
X2745000D01*
Y1730000D01*
X2705000D01*
X1438500Y1361254D02*
Y1401254D01*
X1478500D01*
Y1361254D01*
X1438500D01*
X1135000Y1362333D02*
Y1402333D01*
X1175000D01*
Y1362333D01*
X1135000D01*
X915070Y1169854D02*
Y1209854D01*
X955070D01*
Y1169854D01*
X915070D01*
X1771466Y1232258D02*
Y1272258D01*
X1811466D01*
Y1232258D01*
X1771466D01*
X1940000Y1255000D02*
Y1295000D01*
X1980000D01*
Y1255000D01*
X1940000D01*
X2113634Y1264085D02*
Y1304085D01*
X2153634D01*
Y1264085D01*
X2113634D01*
X2184373Y1253558D02*
Y1293558D01*
X2224373D01*
Y1253558D01*
X2184373D01*
X3067842Y1215224D02*
Y1255224D01*
X3107842D01*
Y1215224D01*
X3067842D01*
X2983000Y1181000D02*
Y1221000D01*
X3023000D01*
Y1181000D01*
X2983000D01*
X2163711Y2070641D02*
Y2110641D01*
X2203711D01*
Y2070641D01*
X2163711D01*
X2100000Y1580000D02*
Y1620000D01*
X2140000D01*
Y1580000D01*
X2100000D01*
X1985000Y1505000D02*
Y1545000D01*
X2025000D01*
Y1505000D01*
X1985000D01*
X1690000D02*
Y1545000D01*
X1730000D01*
Y1505000D01*
X1690000D01*
X1464174Y1195000D02*
Y1235000D01*
X1504174D01*
Y1195000D01*
X1464174D01*
X1360000Y1253560D02*
Y1293560D01*
X1400000D01*
Y1253560D01*
X1360000D01*
X1233342Y1185866D02*
Y1225866D01*
X1273342D01*
Y1185866D01*
X1233342D01*
X1391215Y1504822D02*
Y1544822D01*
X1431215D01*
Y1504822D01*
X1391215D01*
X998901Y1268988D02*
Y1308988D01*
X1038901D01*
Y1268988D01*
X998901D01*
X1300340Y2126500D02*
Y2166500D01*
X1340340D01*
Y2126500D01*
X1300340D01*
X1210000Y2160000D02*
Y2200000D01*
X1250000D01*
Y2160000D01*
X1210000D01*
X1038808Y2150000D02*
Y2190000D01*
X1078808D01*
Y2150000D01*
X1038808D01*
X1053000Y1782000D02*
Y1822000D01*
X1093000D01*
Y1782000D01*
X1053000D01*
X1010000Y1905000D02*
Y1945000D01*
X1050000D01*
Y1905000D01*
X1010000D01*
X902152Y2031207D02*
Y2071207D01*
X942152D01*
Y2031207D01*
X902152D01*
X1605000Y2030000D02*
Y2070000D01*
X1645000D01*
Y2030000D01*
X1605000D01*
X1325000Y1910000D02*
Y1950000D01*
X1365000D01*
Y1910000D01*
X1325000D01*
X1115000Y2285000D02*
Y2325000D01*
X1155000D01*
Y2285000D01*
X1115000D01*
X1064777Y1518049D02*
Y1558049D01*
X1104777D01*
Y1518049D01*
X1064777D01*
X3005150Y1001535D02*
Y1041535D01*
X3045150D01*
Y1001535D01*
X3005150D01*
X2973237Y980815D02*
Y1020815D01*
X3013237D01*
Y980815D01*
X2973237D01*
X3186824Y1360000D02*
Y1400000D01*
X3226824D01*
Y1360000D01*
X3186824D01*
X2771000Y1334000D02*
Y1374000D01*
X2811000D01*
Y1334000D01*
X2771000D01*
X3186824Y1260000D02*
Y1300000D01*
X3226824D01*
Y1260000D01*
X3186824D01*
Y1160000D02*
Y1200000D01*
X3226824D01*
Y1160000D01*
X3186824D01*
Y1060000D02*
Y1100000D01*
X3226824D01*
Y1060000D01*
X3186824D01*
X2966500Y1990238D02*
Y2030238D01*
X3006500D01*
Y1990238D01*
X2966500D01*
X3171824Y2290238D02*
Y2330238D01*
X3211824D01*
Y2290238D01*
X3171824D01*
Y2090238D02*
Y2130238D01*
X3211824D01*
Y2090238D01*
X3171824D01*
Y1990238D02*
Y2030238D01*
X3211824D01*
Y1990238D01*
X3171824D01*
Y2190238D02*
Y2230238D01*
X3211824D01*
Y2190238D01*
X3171824D01*
X1328015Y1650090D02*
Y1690090D01*
X1368015D01*
Y1650090D01*
X1328015D01*
X1633000Y1791772D02*
Y1831772D01*
X1673000D01*
Y1791772D01*
X1633000D01*
X1986594Y1073978D02*
Y1113978D01*
X2026594D01*
Y1073978D01*
X1986594D01*
X1515405Y1593639D02*
Y1633639D01*
X1555405D01*
Y1593639D01*
X1515405D01*
X1362034Y1603820D02*
Y1643820D01*
X1402034D01*
Y1603820D01*
X1362034D01*
X2260000Y2071000D02*
Y2111000D01*
X2300000D01*
Y2071000D01*
X2260000D01*
X2287000Y1011000D02*
Y1051000D01*
X2327000D01*
Y1011000D01*
X2287000D01*
X1202000Y1508000D02*
Y1548000D01*
X1242000D01*
Y1508000D01*
X1202000D01*
X1807000Y1591000D02*
Y1631000D01*
X1847000D01*
Y1591000D01*
X1807000D01*
X1788000Y1507402D02*
Y1547402D01*
X1828000D01*
Y1507402D01*
X1788000D01*
X1559500Y1813000D02*
Y1853000D01*
X1599500D01*
Y1813000D01*
X1559500D01*
X1938000Y1595000D02*
Y1635000D01*
X1978000D01*
Y1595000D01*
X1938000D01*
X1882000Y1584000D02*
Y1624000D01*
X1922000D01*
Y1584000D01*
X1882000D01*
X2409000Y1820000D02*
Y1860000D01*
X2449000D01*
Y1820000D01*
X2409000D01*
X1863222Y1740592D02*
Y1780592D01*
X1903222D01*
Y1740592D01*
X1863222D01*
X2398000Y2335000D02*
Y2375000D01*
X2438000D01*
Y2335000D01*
X2398000D01*
X2640000Y1851000D02*
Y1891000D01*
X2680000D01*
Y1851000D01*
X2640000D01*
X2182000Y2331000D02*
Y2371000D01*
X2222000D01*
Y2331000D01*
X2182000D01*
X2147966Y1775000D02*
Y1815000D01*
X2187966D01*
Y1775000D01*
X2147966D01*
X1758000Y1291000D02*
Y1331000D01*
X1798000D01*
Y1291000D01*
X1758000D01*
X1315972Y2262812D02*
Y2302812D01*
X1355972D01*
Y2262812D01*
X1315972D01*
X2595790Y1070042D02*
Y1110042D01*
X2635790D01*
Y1070042D01*
X2595790D01*
X1881772Y2308872D02*
Y2348872D01*
X1921772D01*
Y2308872D01*
X1881772D01*
X2592966Y2034962D02*
Y2074962D01*
X2632966D01*
Y2034962D01*
X2592966D01*
X2590368Y2226654D02*
Y2266654D01*
X2630368D01*
Y2226654D01*
X2590368D01*
X1152966Y1598818D02*
Y1638818D01*
X1192966D01*
Y1598818D01*
X1152966D01*
X1740348Y1070042D02*
Y1110042D01*
X1780348D01*
Y1070042D01*
X1740348D01*
X1142966Y1932598D02*
Y1972598D01*
X1182966D01*
Y1932598D01*
X1142966D01*
X2253614Y1070042D02*
Y1110042D01*
X2293614D01*
Y1070042D01*
X2253614D01*
X2207034Y1908978D02*
Y1948978D01*
X2247034D01*
Y1908978D01*
X2207034D01*
X2469934Y1731024D02*
Y1771024D01*
X2509934D01*
Y1731024D01*
X2469934D01*
X2352034Y2031026D02*
Y2071026D01*
X2392034D01*
Y2031026D01*
X2352034D01*
X2592966Y1932598D02*
Y1972598D01*
X2632966D01*
Y1932598D01*
X2592966D01*
X2374028Y2264056D02*
Y2304056D01*
X2414028D01*
Y2264056D01*
X2374028D01*
X2737966Y2034962D02*
Y2074962D01*
X2777966D01*
Y2034962D01*
X2737966D01*
D78*
X745000Y1045000D02*
G03*
X745000Y1045000I-20000J0D01*
G01*
Y2345000D02*
G03*
X745000Y2345000I-20000J0D01*
G01*
X3050000Y1695000D02*
G03*
X3050000Y1695000I-20000J0D01*
G01*
%TF.MD5,042eeffc8da31bd4fed246218f797b2b*%
M02*
