%TF.GenerationSoftware,Altium Limited,Altium Designer,21.1.1 (26)*%
G04 Layer_Color=16711935*
%FSLAX26Y26*%
%MOIN*%
%TF.SameCoordinates,5075B572-C75D-40FD-B4B0-80468548393A*%
%TF.FilePolarity,Positive*%
%TF.FileFunction,Other,Top_Assembly*%
%TF.Part,Single*%
G01*
G75*
%TA.AperFunction,NonConductor*%
%ADD38C,0.007874*%
G36*
X2559809Y2265298D02*
X2560075D01*
X2560403Y2265257D01*
X2560773Y2265216D01*
X2561182Y2265154D01*
X2561654Y2265072D01*
X2562146Y2264970D01*
X2562659Y2264847D01*
X2563171Y2264683D01*
X2563704Y2264498D01*
X2564258Y2264293D01*
X2564791Y2264027D01*
X2565303Y2263740D01*
X2565795Y2263391D01*
X2565816Y2263371D01*
X2565918Y2263309D01*
X2566041Y2263186D01*
X2566226Y2263043D01*
X2566430Y2262838D01*
X2566677Y2262592D01*
X2566923Y2262305D01*
X2567209Y2261997D01*
X2567517Y2261628D01*
X2567804Y2261218D01*
X2568111Y2260767D01*
X2568398Y2260296D01*
X2568686Y2259763D01*
X2568952Y2259209D01*
X2569198Y2258594D01*
X2569403Y2257959D01*
X2566123Y2257200D01*
Y2257241D01*
X2566082Y2257323D01*
X2566041Y2257467D01*
X2565959Y2257651D01*
X2565877Y2257877D01*
X2565754Y2258143D01*
X2565631Y2258430D01*
X2565467Y2258738D01*
X2565119Y2259394D01*
X2564668Y2260050D01*
X2564421Y2260357D01*
X2564155Y2260665D01*
X2563868Y2260952D01*
X2563561Y2261198D01*
X2563540Y2261218D01*
X2563479Y2261259D01*
X2563396Y2261321D01*
X2563253Y2261403D01*
X2563089Y2261485D01*
X2562905Y2261608D01*
X2562679Y2261710D01*
X2562412Y2261833D01*
X2562126Y2261956D01*
X2561818Y2262059D01*
X2561470Y2262182D01*
X2561101Y2262264D01*
X2560711Y2262346D01*
X2560280Y2262407D01*
X2559850Y2262448D01*
X2559378Y2262469D01*
X2559091D01*
X2558887Y2262448D01*
X2558640Y2262428D01*
X2558354Y2262387D01*
X2558026Y2262346D01*
X2557677Y2262305D01*
X2557308Y2262223D01*
X2556919Y2262120D01*
X2556508Y2262018D01*
X2556099Y2261874D01*
X2555689Y2261731D01*
X2555278Y2261526D01*
X2554889Y2261321D01*
X2554520Y2261075D01*
X2554499Y2261054D01*
X2554438Y2261013D01*
X2554336Y2260931D01*
X2554213Y2260829D01*
X2554048Y2260685D01*
X2553864Y2260501D01*
X2553659Y2260316D01*
X2553454Y2260091D01*
X2553229Y2259824D01*
X2553003Y2259537D01*
X2552757Y2259230D01*
X2552532Y2258902D01*
X2552327Y2258553D01*
X2552122Y2258164D01*
X2551937Y2257754D01*
X2551773Y2257323D01*
Y2257303D01*
X2551732Y2257221D01*
X2551711Y2257098D01*
X2551650Y2256913D01*
X2551588Y2256708D01*
X2551527Y2256442D01*
X2551465Y2256155D01*
X2551383Y2255827D01*
X2551302Y2255478D01*
X2551240Y2255109D01*
X2551178Y2254699D01*
X2551117Y2254289D01*
X2551035Y2253408D01*
X2550994Y2252485D01*
Y2252444D01*
Y2252342D01*
Y2252178D01*
X2551015Y2251952D01*
Y2251665D01*
X2551035Y2251337D01*
X2551076Y2250968D01*
X2551117Y2250579D01*
X2551158Y2250148D01*
X2551220Y2249697D01*
X2551383Y2248754D01*
X2551609Y2247791D01*
X2551753Y2247319D01*
X2551916Y2246848D01*
X2551937Y2246827D01*
X2551957Y2246745D01*
X2552019Y2246622D01*
X2552101Y2246458D01*
X2552204Y2246253D01*
X2552327Y2246028D01*
X2552470Y2245782D01*
X2552634Y2245495D01*
X2552818Y2245208D01*
X2553044Y2244921D01*
X2553290Y2244613D01*
X2553536Y2244326D01*
X2553823Y2244039D01*
X2554131Y2243752D01*
X2554479Y2243506D01*
X2554827Y2243260D01*
X2554848Y2243240D01*
X2554910Y2243219D01*
X2555032Y2243158D01*
X2555176Y2243076D01*
X2555360Y2242994D01*
X2555586Y2242891D01*
X2555832Y2242789D01*
X2556119Y2242686D01*
X2556427Y2242563D01*
X2556755Y2242461D01*
X2557103Y2242358D01*
X2557472Y2242276D01*
X2557861Y2242194D01*
X2558271Y2242133D01*
X2558682Y2242112D01*
X2559112Y2242092D01*
X2559235D01*
X2559378Y2242112D01*
X2559584D01*
X2559829Y2242133D01*
X2560096Y2242174D01*
X2560424Y2242235D01*
X2560752Y2242297D01*
X2561121Y2242379D01*
X2561510Y2242481D01*
X2561900Y2242604D01*
X2562289Y2242768D01*
X2562700Y2242953D01*
X2563089Y2243158D01*
X2563479Y2243404D01*
X2563847Y2243691D01*
X2563868Y2243711D01*
X2563930Y2243773D01*
X2564032Y2243855D01*
X2564155Y2243998D01*
X2564319Y2244162D01*
X2564503Y2244367D01*
X2564709Y2244613D01*
X2564914Y2244900D01*
X2565119Y2245228D01*
X2565344Y2245577D01*
X2565570Y2245966D01*
X2565795Y2246417D01*
X2566000Y2246868D01*
X2566184Y2247381D01*
X2566349Y2247934D01*
X2566492Y2248508D01*
X2569834Y2247668D01*
Y2247647D01*
X2569813Y2247627D01*
Y2247565D01*
X2569793Y2247483D01*
X2569711Y2247278D01*
X2569628Y2246991D01*
X2569506Y2246643D01*
X2569362Y2246253D01*
X2569177Y2245802D01*
X2568952Y2245331D01*
X2568727Y2244839D01*
X2568439Y2244326D01*
X2568132Y2243814D01*
X2567784Y2243281D01*
X2567394Y2242768D01*
X2566984Y2242276D01*
X2566533Y2241825D01*
X2566041Y2241395D01*
X2566000Y2241374D01*
X2565918Y2241313D01*
X2565754Y2241190D01*
X2565549Y2241067D01*
X2565282Y2240903D01*
X2564975Y2240718D01*
X2564606Y2240513D01*
X2564196Y2240329D01*
X2563724Y2240124D01*
X2563212Y2239919D01*
X2562659Y2239734D01*
X2562084Y2239570D01*
X2561449Y2239447D01*
X2560793Y2239345D01*
X2560096Y2239263D01*
X2559378Y2239242D01*
X2559194D01*
X2558989Y2239263D01*
X2558702D01*
X2558354Y2239283D01*
X2557964Y2239324D01*
X2557513Y2239386D01*
X2557021Y2239447D01*
X2556508Y2239529D01*
X2555976Y2239652D01*
X2555422Y2239775D01*
X2554869Y2239939D01*
X2554315Y2240124D01*
X2553782Y2240349D01*
X2553249Y2240595D01*
X2552757Y2240882D01*
X2552736Y2240903D01*
X2552655Y2240964D01*
X2552511Y2241067D01*
X2552347Y2241190D01*
X2552122Y2241374D01*
X2551876Y2241579D01*
X2551609Y2241825D01*
X2551322Y2242112D01*
X2551015Y2242420D01*
X2550686Y2242789D01*
X2550379Y2243178D01*
X2550051Y2243609D01*
X2549744Y2244080D01*
X2549436Y2244593D01*
X2549149Y2245126D01*
X2548883Y2245700D01*
X2548862Y2245741D01*
X2548821Y2245843D01*
X2548760Y2246007D01*
X2548677Y2246253D01*
X2548575Y2246540D01*
X2548452Y2246889D01*
X2548349Y2247278D01*
X2548227Y2247729D01*
X2548083Y2248221D01*
X2547981Y2248734D01*
X2547858Y2249308D01*
X2547755Y2249882D01*
X2547673Y2250497D01*
X2547611Y2251132D01*
X2547570Y2251788D01*
X2547550Y2252465D01*
Y2252485D01*
Y2252506D01*
Y2252567D01*
Y2252649D01*
X2547570Y2252854D01*
Y2253121D01*
X2547591Y2253469D01*
X2547632Y2253859D01*
X2547673Y2254310D01*
X2547735Y2254802D01*
X2547816Y2255314D01*
X2547919Y2255868D01*
X2548042Y2256442D01*
X2548186Y2257016D01*
X2548349Y2257610D01*
X2548555Y2258205D01*
X2548780Y2258779D01*
X2549046Y2259332D01*
X2549067Y2259373D01*
X2549108Y2259455D01*
X2549211Y2259619D01*
X2549334Y2259824D01*
X2549477Y2260050D01*
X2549662Y2260337D01*
X2549887Y2260644D01*
X2550133Y2260993D01*
X2550420Y2261341D01*
X2550748Y2261710D01*
X2551097Y2262079D01*
X2551486Y2262448D01*
X2551896Y2262817D01*
X2552327Y2263145D01*
X2552798Y2263473D01*
X2553311Y2263781D01*
X2553352Y2263801D01*
X2553434Y2263842D01*
X2553597Y2263924D01*
X2553802Y2264027D01*
X2554069Y2264129D01*
X2554376Y2264273D01*
X2554725Y2264416D01*
X2555115Y2264560D01*
X2555566Y2264703D01*
X2556037Y2264826D01*
X2556529Y2264970D01*
X2557082Y2265072D01*
X2557636Y2265175D01*
X2558210Y2265257D01*
X2558825Y2265298D01*
X2559440Y2265318D01*
X2559604D01*
X2559809Y2265298D01*
D02*
G37*
G36*
X2597939Y2239673D02*
X2594720D01*
Y2260788D01*
X2587340Y2239673D01*
X2584347D01*
X2577050Y2261157D01*
Y2239673D01*
X2573831D01*
Y2264908D01*
X2578833D01*
X2584819Y2247032D01*
Y2247012D01*
X2584860Y2246930D01*
X2584901Y2246786D01*
X2584963Y2246622D01*
X2585024Y2246417D01*
X2585106Y2246192D01*
X2585188Y2245925D01*
X2585270Y2245638D01*
X2585475Y2245023D01*
X2585680Y2244408D01*
X2585865Y2243814D01*
X2585947Y2243547D01*
X2586028Y2243301D01*
Y2243322D01*
X2586049Y2243363D01*
X2586070Y2243445D01*
X2586110Y2243568D01*
X2586151Y2243711D01*
X2586213Y2243875D01*
X2586274Y2244080D01*
X2586356Y2244326D01*
X2586439Y2244593D01*
X2586541Y2244900D01*
X2586664Y2245228D01*
X2586787Y2245577D01*
X2586910Y2245987D01*
X2587053Y2246397D01*
X2587218Y2246848D01*
X2587381Y2247340D01*
X2593450Y2264908D01*
X2597939D01*
Y2239673D01*
D02*
G37*
G36*
X2613704D02*
X2610608D01*
Y2259414D01*
X2610588Y2259394D01*
X2610546Y2259373D01*
X2610485Y2259312D01*
X2610403Y2259230D01*
X2610300Y2259127D01*
X2610157Y2259025D01*
X2609993Y2258881D01*
X2609809Y2258738D01*
X2609624Y2258594D01*
X2609398Y2258430D01*
X2608886Y2258061D01*
X2608312Y2257672D01*
X2607656Y2257262D01*
X2607635Y2257241D01*
X2607574Y2257221D01*
X2607472Y2257159D01*
X2607349Y2257098D01*
X2607184Y2256995D01*
X2607000Y2256893D01*
X2606795Y2256790D01*
X2606570Y2256667D01*
X2606077Y2256401D01*
X2605524Y2256134D01*
X2604970Y2255888D01*
X2604417Y2255663D01*
Y2258676D01*
X2604438Y2258697D01*
X2604540Y2258738D01*
X2604663Y2258799D01*
X2604847Y2258902D01*
X2605073Y2259004D01*
X2605340Y2259148D01*
X2605626Y2259312D01*
X2605954Y2259496D01*
X2606303Y2259701D01*
X2606651Y2259927D01*
X2607410Y2260439D01*
X2608189Y2260993D01*
X2608948Y2261628D01*
X2608968Y2261649D01*
X2609030Y2261710D01*
X2609132Y2261792D01*
X2609255Y2261936D01*
X2609419Y2262079D01*
X2609604Y2262264D01*
X2609809Y2262469D01*
X2610014Y2262715D01*
X2610465Y2263227D01*
X2610936Y2263801D01*
X2611346Y2264396D01*
X2611530Y2264703D01*
X2611695Y2265011D01*
X2613704D01*
Y2239673D01*
D02*
G37*
G36*
X2535373Y2264888D02*
X2535927D01*
X2536541Y2264847D01*
X2537177Y2264806D01*
X2537792Y2264744D01*
X2538079Y2264703D01*
X2538345Y2264662D01*
X2538366D01*
X2538427Y2264642D01*
X2538530Y2264621D01*
X2538653Y2264601D01*
X2538817Y2264560D01*
X2539001Y2264519D01*
X2539206Y2264457D01*
X2539432Y2264396D01*
X2539903Y2264232D01*
X2540436Y2264027D01*
X2540949Y2263781D01*
X2541441Y2263473D01*
X2541461D01*
X2541503Y2263432D01*
X2541564Y2263391D01*
X2541646Y2263309D01*
X2541892Y2263125D01*
X2542179Y2262838D01*
X2542486Y2262510D01*
X2542835Y2262079D01*
X2543163Y2261587D01*
X2543470Y2261034D01*
Y2261013D01*
X2543512Y2260972D01*
X2543552Y2260870D01*
X2543593Y2260767D01*
X2543655Y2260624D01*
X2543716Y2260439D01*
X2543778Y2260234D01*
X2543860Y2260029D01*
X2543942Y2259783D01*
X2544003Y2259517D01*
X2544126Y2258943D01*
X2544209Y2258287D01*
X2544249Y2257610D01*
Y2257569D01*
Y2257467D01*
X2544229Y2257303D01*
X2544209Y2257077D01*
X2544188Y2256790D01*
X2544147Y2256483D01*
X2544086Y2256114D01*
X2544003Y2255724D01*
X2543881Y2255294D01*
X2543758Y2254863D01*
X2543593Y2254412D01*
X2543389Y2253961D01*
X2543142Y2253490D01*
X2542876Y2253039D01*
X2542568Y2252588D01*
X2542200Y2252157D01*
X2542179Y2252137D01*
X2542097Y2252055D01*
X2541974Y2251952D01*
X2541789Y2251809D01*
X2541564Y2251645D01*
X2541277Y2251460D01*
X2540928Y2251255D01*
X2540498Y2251050D01*
X2540026Y2250845D01*
X2539494Y2250640D01*
X2538878Y2250456D01*
X2538222Y2250292D01*
X2537464Y2250148D01*
X2536644Y2250046D01*
X2535762Y2249964D01*
X2534799Y2249943D01*
X2528341D01*
Y2239673D01*
X2525000D01*
Y2264908D01*
X2535127D01*
X2535373Y2264888D01*
D02*
G37*
%LPC*%
G36*
X2535557Y2261936D02*
X2528341D01*
Y2252916D01*
X2535148D01*
X2535373Y2252936D01*
X2535640Y2252957D01*
X2535947Y2252977D01*
X2536275Y2253018D01*
X2536624Y2253059D01*
X2537382Y2253203D01*
X2537771Y2253305D01*
X2538140Y2253428D01*
X2538510Y2253551D01*
X2538838Y2253715D01*
X2539166Y2253900D01*
X2539432Y2254105D01*
X2539452Y2254125D01*
X2539494Y2254166D01*
X2539555Y2254228D01*
X2539657Y2254330D01*
X2539760Y2254453D01*
X2539863Y2254597D01*
X2539985Y2254781D01*
X2540129Y2254986D01*
X2540252Y2255212D01*
X2540375Y2255458D01*
X2540477Y2255745D01*
X2540601Y2256052D01*
X2540682Y2256380D01*
X2540744Y2256729D01*
X2540785Y2257118D01*
X2540805Y2257508D01*
Y2257528D01*
Y2257569D01*
Y2257651D01*
X2540785Y2257774D01*
Y2257918D01*
X2540765Y2258061D01*
X2540703Y2258430D01*
X2540621Y2258861D01*
X2540477Y2259312D01*
X2540273Y2259783D01*
X2540006Y2260214D01*
Y2260234D01*
X2539965Y2260255D01*
X2539924Y2260316D01*
X2539863Y2260398D01*
X2539678Y2260583D01*
X2539452Y2260829D01*
X2539145Y2261075D01*
X2538776Y2261321D01*
X2538366Y2261546D01*
X2537894Y2261710D01*
X2537854Y2261731D01*
X2537812D01*
X2537731Y2261751D01*
X2537628Y2261772D01*
X2537505Y2261792D01*
X2537361Y2261813D01*
X2537198Y2261833D01*
X2536992Y2261854D01*
X2536767Y2261874D01*
X2536501D01*
X2536234Y2261895D01*
X2535906Y2261915D01*
X2535557Y2261936D01*
D02*
G37*
%LPD*%
D38*
X2450196Y2182874D02*
Y2310434D01*
Y2182874D02*
X2599804D01*
Y2310434D01*
X2450196D02*
X2599804D01*
%TF.MD5,1cd388892cfc4f82432398df497f54e1*%
M02*
