%TF.GenerationSoftware,Altium Limited,Altium Designer,21.2.1 (34)*%
G04 Layer_Color=128*
%FSLAX26Y26*%
%MOIN*%
%TF.SameCoordinates,8A87C6E5-8FA9-4E2E-8158-6E1788DF71BD*%
%TF.FilePolarity,Positive*%
%TF.FileFunction,Paste,Bot*%
%TF.Part,Single*%
G01*
G75*
%TA.AperFunction,SMDPad,CuDef*%
%ADD32R,0.066929X0.043307*%
%ADD33R,0.070866X0.051181*%
%ADD34R,0.059055X0.039370*%
%ADD35R,0.066929X0.037402*%
%ADD36R,0.074803X0.059055*%
D32*
X1430000Y1623820D02*
D03*
Y1726182D02*
D03*
X940000D02*
D03*
Y1623818D02*
D03*
X1840000Y2054962D02*
D03*
Y1952598D02*
D03*
X2120000Y1745000D02*
D03*
Y1642636D02*
D03*
X2565000Y2054962D02*
D03*
Y1952598D02*
D03*
X1115000D02*
D03*
Y2054962D02*
D03*
X855000Y2187600D02*
D03*
Y2289962D02*
D03*
X2910000Y1192406D02*
D03*
Y1090042D02*
D03*
X2225648Y1192404D02*
D03*
Y1090042D02*
D03*
X2567824Y1192406D02*
D03*
Y1090042D02*
D03*
X2710000Y2054962D02*
D03*
Y1952598D02*
D03*
X1269998Y1731182D02*
D03*
Y1628820D02*
D03*
X1125000Y1721182D02*
D03*
Y1618818D02*
D03*
X1712382Y1192406D02*
D03*
Y1090042D02*
D03*
X1370206Y1192406D02*
D03*
Y1090042D02*
D03*
D33*
X1261968Y2051026D02*
D03*
Y1928978D02*
D03*
X2440000Y1628976D02*
D03*
Y1751024D02*
D03*
X2421968Y1928978D02*
D03*
Y2051026D02*
D03*
X1551968Y1928978D02*
D03*
Y2051026D02*
D03*
X1696968Y1928978D02*
D03*
Y2051026D02*
D03*
X2131968Y1928978D02*
D03*
Y2051026D02*
D03*
X1495000Y2163976D02*
D03*
Y2286024D02*
D03*
X1406968Y1928978D02*
D03*
Y2051026D02*
D03*
X1590000Y1608978D02*
D03*
Y1731026D02*
D03*
X1885440Y1216026D02*
D03*
Y1093978D02*
D03*
X1030000Y1216026D02*
D03*
Y1093978D02*
D03*
X2276968Y1928978D02*
D03*
Y2051026D02*
D03*
X1543264Y1216026D02*
D03*
Y1093978D02*
D03*
X2398704Y1216026D02*
D03*
Y1093978D02*
D03*
X1986968Y2051026D02*
D03*
Y1928978D02*
D03*
X2740880Y1093978D02*
D03*
Y1216026D02*
D03*
X2056528Y1093978D02*
D03*
Y1216026D02*
D03*
X1185000Y1216024D02*
D03*
Y1093976D02*
D03*
D34*
X2350000Y2284056D02*
D03*
Y2165944D02*
D03*
X1745000Y2284056D02*
D03*
Y2165944D02*
D03*
D35*
X1230000Y2182678D02*
D03*
Y2292914D02*
D03*
X825000Y2057916D02*
D03*
Y1947680D02*
D03*
D36*
X973938Y2047088D02*
D03*
Y1928976D02*
D03*
%TF.MD5,4113d494b2fd9ec0af4bf2931f55a5f1*%
M02*
