%TF.GenerationSoftware,Altium Limited,Altium Designer,21.2.1 (34)*%
G04 Layer_Physical_Order=2*
G04 Layer_Color=32768*
%FSLAX26Y26*%
%MOIN*%
%TF.SameCoordinates,8A87C6E5-8FA9-4E2E-8158-6E1788DF71BD*%
%TF.FilePolarity,Negative*%
%TF.FileFunction,Copper,L2,Inr,Plane*%
%TF.Part,Single*%
G01*
G75*
%TA.AperFunction,NonConductor*%
%ADD28C,0.040000*%
%TA.AperFunction,ViaPad*%
%ADD29C,0.049000*%
G04:AMPARAMS|DCode=30|XSize=69mil|YSize=69mil|CornerRadius=0mil|HoleSize=0mil|Usage=FLASHONLY|Rotation=0.000|XOffset=0mil|YOffset=0mil|HoleType=Round|Shape=Relief|Width=10mil|Gap=10mil|Entries=4|*
%AMTHD30*
7,0,0,0.069000,0.049000,0.010000,45*
%
%ADD30THD30*%
%ADD31C,0.112000*%
D28*
X650000Y2425000D02*
X3239999Y2425000D01*
X650000Y2425000D02*
X650000Y970000D01*
X3240000Y970000D01*
X3239999Y2425000D02*
X3240000Y970000D01*
D29*
X2610000Y2230000D02*
D03*
X2612966Y2054962D02*
D03*
X2200000Y2360000D02*
D03*
X3016920Y1446125D02*
D03*
X2876000Y1716000D02*
D03*
X1615000Y2165000D02*
D03*
X1792034Y2054962D02*
D03*
X1837617Y1760617D02*
D03*
X2702000Y1576500D02*
D03*
X2610000Y1600000D02*
D03*
X2395000Y1301117D02*
D03*
X2679858Y1685500D02*
D03*
X2295000Y1325000D02*
D03*
X2110000Y1528000D02*
D03*
X875824Y1330552D02*
D03*
X1140000Y1785000D02*
D03*
X2651279Y1266236D02*
D03*
X2605000Y1525000D02*
D03*
X2295205Y1519535D02*
D03*
X2330000Y1601500D02*
D03*
X2271761Y1832658D02*
D03*
X2246500Y1611000D02*
D03*
X2031088Y1844525D02*
D03*
X2059000Y1826000D02*
D03*
X1322000Y1832000D02*
D03*
X1570000Y1301117D02*
D03*
X2725000Y1750000D02*
D03*
X935070Y1189854D02*
D03*
X1791466Y1252258D02*
D03*
X2133634Y1284085D02*
D03*
X3003000Y1201000D02*
D03*
X2005000Y1525000D02*
D03*
X1710000D02*
D03*
X1253342Y1205866D02*
D03*
X1411215Y1524822D02*
D03*
X1320340Y2146500D02*
D03*
X1058808Y2170000D02*
D03*
X1073000Y1802000D02*
D03*
X922152Y2051207D02*
D03*
X1135000Y2305000D02*
D03*
X1084777Y1538049D02*
D03*
X3025150Y1021535D02*
D03*
X2993237Y1000815D02*
D03*
X2791000Y1354000D02*
D03*
X2986500Y2010238D02*
D03*
X1653000Y1811772D02*
D03*
X2006594Y1093978D02*
D03*
X2280000Y2091000D02*
D03*
X2307000Y1031000D02*
D03*
X1222000Y1528000D02*
D03*
X1827000Y1611000D02*
D03*
X1808000Y1527402D02*
D03*
X1579500Y1833000D02*
D03*
X1958000Y1615000D02*
D03*
X1902000Y1604000D02*
D03*
X2429000Y1840000D02*
D03*
X1883222Y1760592D02*
D03*
X2418000Y2355000D02*
D03*
X2660000Y1871000D02*
D03*
X2167966Y1795000D02*
D03*
X1778000Y1311000D02*
D03*
X1335972Y2282812D02*
D03*
X2615790Y1090042D02*
D03*
X1901772Y2328872D02*
D03*
D30*
X2612966Y1952598D02*
D03*
X855000Y2290000D02*
D03*
X1792034Y1952598D02*
D03*
X1495000Y2165000D02*
D03*
X2775000Y1605476D02*
D03*
X2354416Y1382333D02*
D03*
X2054562D02*
D03*
X1092063Y1256897D02*
D03*
X825000Y2105000D02*
D03*
X2654268Y1382333D02*
D03*
X1823368Y1657159D02*
D03*
X1754708Y1382333D02*
D03*
X2515000Y1195000D02*
D03*
X2755000Y1301117D02*
D03*
X2273162Y1598488D02*
D03*
X1188917Y1832469D02*
D03*
X1649500Y1265779D02*
D03*
X1458500Y1381254D02*
D03*
X1155000Y1382333D02*
D03*
X1960000Y1275000D02*
D03*
X2204373Y1273558D02*
D03*
X3087842Y1235224D02*
D03*
X2183711Y2090641D02*
D03*
X2120000Y1600000D02*
D03*
X1484174Y1215000D02*
D03*
X1380000Y1273560D02*
D03*
X1018901Y1288988D02*
D03*
X1230000Y2180000D02*
D03*
X1030000Y1925000D02*
D03*
X1625000Y2050000D02*
D03*
X1345000Y1930000D02*
D03*
X3206824Y1380000D02*
D03*
Y1280000D02*
D03*
Y1180000D02*
D03*
Y1080000D02*
D03*
X3191824Y2310238D02*
D03*
Y2110238D02*
D03*
Y2010238D02*
D03*
Y2210238D02*
D03*
X1348015Y1670090D02*
D03*
X1535405Y1613639D02*
D03*
X1382034Y1623820D02*
D03*
X1172966Y1618818D02*
D03*
X1760348Y1090042D02*
D03*
X1162966Y1952598D02*
D03*
X2273614Y1090042D02*
D03*
X2227034Y1928978D02*
D03*
X2489934Y1751024D02*
D03*
X2372034Y2051026D02*
D03*
X2394028Y2284056D02*
D03*
X2757966Y2054962D02*
D03*
D31*
X725000Y1045000D02*
D03*
Y2345000D02*
D03*
X3030000Y1695000D02*
D03*
%TF.MD5,03ae276d7a646eed0d7a03fb0dac8dcd*%
M02*
