%TF.GenerationSoftware,Altium Limited,Altium Designer,21.2.1 (34)*%
G04 Layer_Color=32768*
%FSLAX26Y26*%
%MOIN*%
%TF.SameCoordinates,8A87C6E5-8FA9-4E2E-8158-6E1788DF71BD*%
%TF.FilePolarity,Positive*%
%TF.FileFunction,Other,Mechanical_15*%
%TF.Part,Single*%
G01*
G75*
%TA.AperFunction,NonConductor*%
%ADD51C,0.003937*%
%ADD72C,0.001968*%
D51*
X2414482Y1135000D02*
X2453852D01*
X2434166Y1115314D02*
Y1154686D01*
X2334730Y1490000D02*
X2374102D01*
X2354416Y1470314D02*
Y1509686D01*
X1586982Y1135000D02*
X1626352D01*
X1606666Y1115314D02*
Y1154686D01*
X1330834Y1115314D02*
Y1154686D01*
X1311148Y1135000D02*
X1350518D01*
X1430000Y1655316D02*
Y1694686D01*
X1410316Y1675000D02*
X1449686D01*
X1261968Y1970316D02*
Y2009686D01*
X1242282Y1990002D02*
X1281654D01*
X920316Y1675000D02*
X959686D01*
X940000Y1655314D02*
Y1694684D01*
X2440000Y1670316D02*
Y1709686D01*
X2420316Y1690000D02*
X2459686D01*
X1820316Y2003780D02*
X1859686D01*
X1840000Y1984094D02*
Y2023464D01*
X2100316Y1693818D02*
X2139686D01*
X2120000Y1674132D02*
Y1713502D01*
X1071064Y2200198D02*
Y2239568D01*
X1051378Y2219882D02*
X1090748D01*
X1340630Y2133204D02*
X1419370D01*
X1340630Y2314308D02*
X1419370D01*
X1340630Y2133204D02*
Y2314308D01*
X1419370Y2133204D02*
Y2314308D01*
X1380000Y2204072D02*
Y2243442D01*
X1360314Y2223756D02*
X1399686D01*
X1575630Y2133204D02*
X1654370D01*
X1575630Y2314308D02*
X1654370D01*
X1575630Y2133204D02*
Y2314308D01*
X1654370Y2133204D02*
Y2314308D01*
X1615000Y2204072D02*
Y2243442D01*
X1595314Y2223756D02*
X1634686D01*
X1855712Y1715316D02*
Y1754686D01*
X1836028Y1735000D02*
X1875398D01*
X2545316Y2003780D02*
X2584686D01*
X2565000Y1984096D02*
Y2023466D01*
X1115000Y1984094D02*
Y2023464D01*
X1095314Y2003780D02*
X1134686D01*
X1253748Y1725314D02*
Y1764684D01*
X1234064Y1745000D02*
X1273434D01*
X2034876Y1490000D02*
X2074248D01*
X2054562Y1470314D02*
Y1509686D01*
X1754708Y1470314D02*
Y1509686D01*
X1735022Y1490000D02*
X1774394D01*
X1435168D02*
X1474540D01*
X1454854Y1470314D02*
Y1509686D01*
X1135314Y1490000D02*
X1174686D01*
X1155000Y1470314D02*
Y1509686D01*
X2654268Y1470314D02*
Y1509686D01*
X2634582Y1490000D02*
X2673954D01*
X2775000Y1696164D02*
Y1735536D01*
X2755314Y1715850D02*
X2794686D01*
X2402284Y1990002D02*
X2441654D01*
X2421968Y1970316D02*
Y2009686D01*
X1551968Y1970318D02*
Y2009688D01*
X1532284Y1990002D02*
X1571654D01*
X1696968Y1970318D02*
Y2009688D01*
X1677284Y1990002D02*
X1716654D01*
X2131968Y1970318D02*
Y2009688D01*
X2112284Y1990002D02*
X2151654D01*
X1230000Y2218110D02*
Y2257480D01*
X1210314Y2237796D02*
X1249686D01*
X835314Y2238780D02*
X874684D01*
X855000Y2219096D02*
Y2258466D01*
X825000Y1983112D02*
Y2022482D01*
X805314Y2002798D02*
X844684D01*
X1475314Y2225000D02*
X1514686D01*
X1495000Y2205314D02*
Y2244684D01*
X2910000Y1121538D02*
Y1160908D01*
X2890314Y1141224D02*
X2929684D01*
X2205964Y1141222D02*
X2245334D01*
X2225648Y1121538D02*
Y1160908D01*
X2567824Y1121538D02*
Y1160908D01*
X2548138Y1141224D02*
X2587508D01*
X2710000Y1984094D02*
Y2023464D01*
X2690314Y2003780D02*
X2729684D01*
X1387282Y1990002D02*
X1426654D01*
X1406968Y1970316D02*
Y2009686D01*
X1570314Y1670002D02*
X1609686D01*
X1590000Y1650316D02*
Y1689686D01*
X954254Y1988032D02*
X993624D01*
X973938Y1968348D02*
Y2007718D01*
X1865754Y1155002D02*
X1905126D01*
X1885440Y1135318D02*
Y1174688D01*
X1010314Y1155002D02*
X1049686D01*
X1030000Y1135318D02*
Y1174688D01*
X2257282Y1990002D02*
X2296654D01*
X2276968Y1970316D02*
Y2009686D01*
X1523578Y1155002D02*
X1562950D01*
X1543264Y1135318D02*
Y1174688D01*
X2379018Y1155002D02*
X2418390D01*
X2398704Y1135318D02*
Y1174688D01*
X1967282Y1990002D02*
X2006654D01*
X1986968Y1970318D02*
Y2009688D01*
X1250314Y1680000D02*
X1289684D01*
X1269998Y1660316D02*
Y1699686D01*
X1105316Y1670000D02*
X1144686D01*
X1125000Y1650316D02*
Y1689686D01*
X1692696Y1141224D02*
X1732068D01*
X1712382Y1121538D02*
Y1160908D01*
X2721194Y1155002D02*
X2760566D01*
X2740880Y1135316D02*
Y1174686D01*
X1350522Y1141224D02*
X1389892D01*
X1370206Y1121540D02*
Y1160910D01*
X2056528Y1135318D02*
Y1174688D01*
X2036842Y1155002D02*
X2076214D01*
X1185000Y1135314D02*
Y1174686D01*
X1165314Y1155000D02*
X1204684D01*
X2138650Y1135000D02*
X2178020D01*
X2158336Y1115314D02*
Y1154686D01*
X1035314Y1135000D02*
X1074684D01*
X1055000Y1115314D02*
Y1154686D01*
X1862816Y1135000D02*
X1902186D01*
X1882500Y1115314D02*
Y1154686D01*
X2710000Y1115314D02*
Y1154686D01*
X2690314Y1135000D02*
X2729684D01*
D72*
X2359364Y1044448D02*
X2508970D01*
X2359364D02*
Y1233426D01*
X2508970D01*
Y1044448D02*
Y1233426D01*
X2401660Y1435866D02*
Y1544134D01*
X2307172Y1435866D02*
Y1544134D01*
X2401660D01*
X2307172Y1435866D02*
X2401660D01*
X1531864Y1044448D02*
X1681470D01*
X1531864D02*
Y1233426D01*
X1681470D01*
Y1044448D02*
Y1233426D01*
X1405636Y1044448D02*
Y1233426D01*
X1256030D02*
X1405636D01*
X1256030Y1044448D02*
Y1233426D01*
Y1044448D02*
X1405636D01*
X3005316Y1230000D02*
X3044686D01*
X3025000Y1210316D02*
Y1249686D01*
X3200196Y1019174D02*
Y1440826D01*
X2849804Y1019174D02*
X3200196D01*
X2849804D02*
Y1440826D01*
X3200196D01*
X2834804Y2371064D02*
X3185196D01*
X2834804Y1949412D02*
Y2371064D01*
Y1949412D02*
X3185196D01*
Y2371064D01*
X3010000Y2140554D02*
Y2179924D01*
X2990316Y2160238D02*
X3029686D01*
X1390630Y1598230D02*
X1469370D01*
X1390630Y1751772D02*
X1469370D01*
Y1598230D02*
Y1751772D01*
X1390630Y1598230D02*
Y1751772D01*
X1206850Y2096302D02*
X1317086D01*
X1206850Y1883702D02*
X1317086D01*
X1206850D02*
Y2096302D01*
X1317086Y1883702D02*
Y2096302D01*
X900630Y1598228D02*
Y1751772D01*
X979370Y1598228D02*
Y1751772D01*
X900630D02*
X979370D01*
X900630Y1598228D02*
X979370D01*
X2384882Y1583700D02*
X2495118D01*
X2384882Y1796300D02*
X2495118D01*
Y1583700D02*
Y1796300D01*
X2384882Y1583700D02*
Y1796300D01*
X1800630Y1927008D02*
Y2080552D01*
X1879370Y1927008D02*
Y2080552D01*
X1800630D02*
X1879370D01*
X1800630Y1927008D02*
X1879370D01*
X2080630Y1617046D02*
Y1770590D01*
X2159370Y1617046D02*
Y1770590D01*
X2080630D02*
X2159370D01*
X2080630Y1617046D02*
X2159370D01*
X980512Y2314370D02*
X1169488D01*
X980512Y2125394D02*
X1169488D01*
X980512D02*
Y2314370D01*
X1169488Y2125394D02*
Y2314370D01*
X1702168Y1624764D02*
X2009256D01*
X1702168Y1845236D02*
X2009256D01*
Y1624764D02*
Y1845236D01*
X1702168Y1624764D02*
Y1845236D01*
X2525630Y1927008D02*
Y2080552D01*
X2604370Y1927008D02*
Y2080552D01*
X2525630D02*
X2604370D01*
X2525630Y1927008D02*
X2604370D01*
X1075630D02*
X1154370D01*
X1075630Y2080552D02*
X1154370D01*
Y1927008D02*
Y2080552D01*
X1075630Y1927008D02*
Y2080552D01*
X1190756Y1833582D02*
X1316740D01*
X1190756Y1656418D02*
X1316740D01*
Y1833582D01*
X1190756Y1656418D02*
Y1833582D01*
X2101806Y1435866D02*
Y1544134D01*
X2007318Y1435866D02*
Y1544134D01*
X2101806D01*
X2007318Y1435866D02*
X2101806D01*
X1707464D02*
X1801952D01*
X1707464Y1544134D02*
X1801952D01*
X1707464Y1435866D02*
Y1544134D01*
X1801952Y1435866D02*
Y1544134D01*
X1502098Y1435866D02*
Y1544134D01*
X1407610Y1435866D02*
Y1544134D01*
X1502098D01*
X1407610Y1435866D02*
X1502098D01*
X1202244D02*
Y1544134D01*
X1107756Y1435866D02*
Y1544134D01*
X1202244D01*
X1107756Y1435866D02*
X1202244D01*
X2607024D02*
X2701512D01*
X2607024Y1544134D02*
X2701512D01*
X2607024Y1435866D02*
Y1544134D01*
X2701512Y1435866D02*
Y1544134D01*
X2727756Y1661716D02*
X2822244D01*
X2727756Y1769984D02*
X2822244D01*
X2727756Y1661716D02*
Y1769984D01*
X2822244Y1661716D02*
Y1769984D01*
X2366850Y1883702D02*
Y2096300D01*
X2477086Y1883702D02*
Y2096300D01*
X2366850D02*
X2477086D01*
X2366850Y1883702D02*
X2477086D01*
X1496850Y1883704D02*
X1607086D01*
X1496850Y2096302D02*
X1607086D01*
Y1883704D02*
Y2096302D01*
X1496850Y1883704D02*
Y2096302D01*
X1641850Y1883702D02*
X1752086D01*
X1641850Y2096302D02*
X1752086D01*
Y1883702D02*
Y2096302D01*
X1641850Y1883702D02*
Y2096302D01*
X2076850Y1883704D02*
X2187086D01*
X2076850Y2096302D02*
X2187086D01*
Y1883704D02*
Y2096302D01*
X2076850Y1883704D02*
Y2096302D01*
X1192598Y2159056D02*
X1267402D01*
X1192598Y2316536D02*
X1267402D01*
Y2159056D02*
Y2316536D01*
X1192598Y2159056D02*
Y2316536D01*
X894370Y2162008D02*
Y2315552D01*
X815630Y2162008D02*
Y2315552D01*
Y2162008D02*
X894370D01*
X815630Y2315552D02*
X894370D01*
X787598Y2081538D02*
X862402D01*
X787598Y1924058D02*
X862402D01*
X787598D02*
Y2081538D01*
X862402Y1924058D02*
Y2081538D01*
X1550118Y2118700D02*
Y2331300D01*
X1439882Y2118700D02*
Y2331300D01*
Y2118700D02*
X1550118D01*
X1439882Y2331300D02*
X1550118D01*
X2870630Y1217996D02*
X2949370D01*
X2870630Y1064452D02*
X2949370D01*
X2870630D02*
Y1217996D01*
X2949370Y1064452D02*
Y1217996D01*
X2186278Y1064452D02*
Y1217994D01*
X2265018Y1064452D02*
Y1217994D01*
X2186278D02*
X2265018D01*
X2186278Y1064452D02*
X2265018D01*
X2528454Y1217996D02*
X2607194D01*
X2528454Y1064452D02*
X2607194D01*
X2528454D02*
Y1217996D01*
X2607194Y1064452D02*
Y1217996D01*
X2670630Y2080552D02*
X2749370D01*
X2670630Y1927008D02*
X2749370D01*
X2670630D02*
Y2080552D01*
X2749370Y1927008D02*
Y2080552D01*
X1462086Y1883702D02*
Y2096302D01*
X1351850Y1883702D02*
Y2096302D01*
Y1883702D02*
X1462086D01*
X1351850Y2096302D02*
X1462086D01*
X1645118Y1563702D02*
Y1776302D01*
X1534882Y1563702D02*
Y1776302D01*
Y1563702D02*
X1645118D01*
X1534882Y1776302D02*
X1645118D01*
X916852Y1879764D02*
Y2096300D01*
X1031024Y1879764D02*
Y2096300D01*
X916852D02*
X1031024D01*
X916852Y1879764D02*
X1031024D01*
X1830322Y1048702D02*
Y1261302D01*
X1940558Y1048702D02*
Y1261302D01*
X1830322D02*
X1940558D01*
X1830322Y1048702D02*
X1940558D01*
X974882D02*
Y1261302D01*
X1085118Y1048702D02*
Y1261302D01*
X974882D02*
X1085118D01*
X974882Y1048702D02*
X1085118D01*
X2332086Y1883702D02*
Y2096302D01*
X2221850Y1883702D02*
Y2096302D01*
Y1883702D02*
X2332086D01*
X2221850Y2096302D02*
X2332086D01*
X1488146Y1048702D02*
Y1261302D01*
X1598382Y1048702D02*
Y1261302D01*
X1488146D02*
X1598382D01*
X1488146Y1048702D02*
X1598382D01*
X2343586D02*
Y1261302D01*
X2453822Y1048702D02*
Y1261302D01*
X2343586D02*
X2453822D01*
X2343586Y1048702D02*
X2453822D01*
X1931850Y1883702D02*
Y2096302D01*
X2042086Y1883702D02*
Y2096302D01*
X1931850D02*
X2042086D01*
X1931850Y1883702D02*
X2042086D01*
X1230628Y1603230D02*
Y1756772D01*
X1309368Y1603230D02*
Y1756772D01*
X1230628D02*
X1309368D01*
X1230628Y1603230D02*
X1309368D01*
X1085630Y1593228D02*
Y1746772D01*
X1164370Y1593228D02*
Y1746772D01*
X1085630D02*
X1164370D01*
X1085630Y1593228D02*
X1164370D01*
X1673012Y1064452D02*
Y1217996D01*
X1751752Y1064452D02*
Y1217996D01*
X1673012D02*
X1751752D01*
X1673012Y1064452D02*
X1751752D01*
X2795998Y1048702D02*
Y1261302D01*
X2685762Y1048702D02*
Y1261302D01*
Y1048702D02*
X2795998D01*
X2685762Y1261302D02*
X2795998D01*
X1330836Y1064452D02*
Y1217996D01*
X1409576Y1064452D02*
Y1217996D01*
X1330836D02*
X1409576D01*
X1330836Y1064452D02*
X1409576D01*
X2001410Y1048704D02*
X2111646D01*
X2001410Y1261302D02*
X2111646D01*
Y1048704D02*
Y1261302D01*
X2001410Y1048704D02*
Y1261302D01*
X1129882Y1261300D02*
X1240118D01*
X1129882Y1048700D02*
X1240118D01*
X1129882D02*
Y1261300D01*
X1240118Y1048700D02*
Y1261300D01*
X2083532Y1044448D02*
X2233138D01*
X2083532D02*
Y1233426D01*
X2233138D01*
Y1044448D02*
Y1233426D01*
X980196Y1044448D02*
X1129802D01*
X980196D02*
Y1233426D01*
X1129802D01*
Y1044448D02*
Y1233426D01*
X1807696Y1044448D02*
X1957304D01*
X1807696D02*
Y1233426D01*
X1957304D01*
Y1044448D02*
Y1233426D01*
X2784802Y1044448D02*
Y1233426D01*
X2635196D02*
X2784802D01*
X2635196Y1044448D02*
Y1233426D01*
Y1044448D02*
X2784802D01*
%TF.MD5,db0f758845f94a70299df0dfe9873fde*%
M02*
