M48
;Layer_Color=9474304
;FILE_FORMAT=2:5
INCH,LZ
;TYPE=PLATED
T1F00S00C0.00900
T2F00S00C0.07200
%
T01
X0093507Y0118985
X010189Y0128899
X0109206Y012569
X01155Y0138233
X01222Y01528
X0108478Y0153805
X0141121Y0152482
X014585Y0138125
X0138Y0127356
X0148417Y01215
X0125334Y0120587
X0087582Y0133055
X0157Y0130112
X016495Y0126578
X0179147Y0125226
X01778Y01311
X0175471Y0138233
X0171Y01525
X01808Y015274
X02005Y01525
X0211Y01528
X0229521Y0151953
X02295Y01325
X0235442Y0138233
X02395Y0130112
X0220437Y0127356
X0213363Y0128409
X0205456Y0138233
X0196Y01275
X0200659Y0109398
X0176035Y0109004
X0227361
X02307Y01031
X0261579Y0109004
X02515Y01195
X0265128Y0126624
X0265427Y0138233
X02791Y01354
X02755Y0130112
X03003Y01201
X0308784Y0123522
X0302515Y0102154
X0299324Y0100082
X0301692Y0144613
X02605Y01525
X0320682Y0138
Y0128
Y0118
Y0108
X0319182Y0201024
Y0211024
Y0221024
Y0231024
X029865Y0201024
X0275797Y0205496
X0261297
Y019526
X0266Y01871
X02725Y0175
X0267986Y016855
X02702Y015765
X02775Y0160548
X0261Y016
X0248993Y0175102
X02429Y0184
X0227176Y0183266
X0222703Y0192898
X0216797Y01795
X02059Y01826
X0203109Y0184452
X0188322Y0176059
X0183762Y0176062
X0182337Y0165716
X01827Y01611
X01902Y01604
X01958Y01615
X0212Y016
X022465Y01611
X0227316Y0159849
X0233Y016015
X0237203Y0205103
X0228Y02091
X0218371Y0209064
X022Y0236
X02418Y02355
X0239403Y0228406
X0261Y0223
X02876Y01716
X01653Y0181177
X015795Y01833
X01625Y0205
X01615Y02165
X0179203Y0205496
Y019526
X0190177Y0232887
X01495Y02165
X0132034Y021465
X0123Y0218
X0105881Y0217
X01135Y02305
X0133597Y0228281
X01345Y0193
X01322Y01832
X0118892Y0183247
X0114Y01785
X01073Y01802
X0103Y01925
X0116297Y019526
X0092215Y0205121
X00825Y02105
X00855Y0229
X0117297Y0161882
X0138203Y0162382
X0134801Y0167009
X0153541Y0161364
T02
X00725Y01045
X0303Y01695
X00725Y02345
M30
