%TF.GenerationSoftware,Altium Limited,Altium Designer,21.2.1 (34)*%
G04 Layer_Color=16711935*
%FSLAX26Y26*%
%MOIN*%
%TF.SameCoordinates,8A87C6E5-8FA9-4E2E-8158-6E1788DF71BD*%
%TF.FilePolarity,Positive*%
%TF.FileFunction,Other,Top_Assembly*%
%TF.Part,Single*%
G01*
G75*
%TA.AperFunction,NonConductor*%
%ADD38C,0.007874*%
G36*
X2531974Y2360504D02*
X2512282D01*
X2512318Y2360467D01*
X2512464Y2360285D01*
X2512682Y2360067D01*
X2512937Y2359703D01*
X2513265Y2359302D01*
X2513629Y2358793D01*
X2514029Y2358210D01*
X2514430Y2357555D01*
Y2357519D01*
X2514466Y2357482D01*
X2514612Y2357264D01*
X2514794Y2356900D01*
X2515012Y2356463D01*
X2515267Y2355954D01*
X2515522Y2355408D01*
X2515776Y2354862D01*
X2515995Y2354316D01*
X2513010D01*
Y2354352D01*
X2512937Y2354425D01*
X2512901Y2354570D01*
X2512792Y2354752D01*
X2512682Y2354971D01*
X2512537Y2355226D01*
X2512173Y2355844D01*
X2511772Y2356572D01*
X2511263Y2357300D01*
X2510680Y2358065D01*
X2510062Y2358829D01*
X2510025Y2358866D01*
X2509989Y2358902D01*
X2509880Y2359011D01*
X2509770Y2359157D01*
X2509406Y2359484D01*
X2508970Y2359921D01*
X2508460Y2360358D01*
X2507878Y2360831D01*
X2507295Y2361232D01*
X2506676Y2361596D01*
Y2363598D01*
X2531974D01*
Y2360504D01*
D02*
G37*
G36*
Y2344597D02*
X2510899D01*
X2531974Y2337244D01*
Y2334259D01*
X2510535Y2326979D01*
X2531974D01*
Y2323776D01*
X2506786D01*
Y2328763D01*
X2524658Y2334732D01*
X2524694D01*
X2524767Y2334769D01*
X2524876Y2334805D01*
X2525058Y2334878D01*
X2525495Y2335024D01*
X2526041Y2335206D01*
X2526660Y2335388D01*
X2527279Y2335606D01*
X2527861Y2335788D01*
X2528371Y2335934D01*
X2528298Y2335970D01*
X2528116Y2336006D01*
X2527788Y2336116D01*
X2527352Y2336261D01*
X2526769Y2336443D01*
X2526078Y2336698D01*
X2525277Y2336953D01*
X2524330Y2337280D01*
X2506786Y2343323D01*
Y2347800D01*
X2531974D01*
Y2344597D01*
D02*
G37*
G36*
X2524185Y2319736D02*
X2524403Y2319663D01*
X2524694Y2319554D01*
X2525022Y2319444D01*
X2525422Y2319299D01*
X2525859Y2319117D01*
X2526332Y2318898D01*
X2527352Y2318389D01*
X2528371Y2317734D01*
X2528880Y2317333D01*
X2529390Y2316933D01*
X2529827Y2316496D01*
X2530264Y2315986D01*
X2530300Y2315950D01*
X2530373Y2315877D01*
X2530446Y2315695D01*
X2530591Y2315513D01*
X2530773Y2315222D01*
X2530955Y2314931D01*
X2531137Y2314530D01*
X2531319Y2314130D01*
X2531538Y2313657D01*
X2531720Y2313147D01*
X2531902Y2312601D01*
X2532084Y2312019D01*
X2532229Y2311400D01*
X2532302Y2310745D01*
X2532375Y2310053D01*
X2532411Y2309325D01*
Y2308925D01*
X2532375Y2308634D01*
Y2308306D01*
X2532338Y2307906D01*
X2532266Y2307469D01*
X2532193Y2306959D01*
X2532011Y2305904D01*
X2531720Y2304812D01*
X2531319Y2303720D01*
X2531064Y2303210D01*
X2530773Y2302700D01*
X2530737Y2302664D01*
X2530700Y2302591D01*
X2530591Y2302446D01*
X2530446Y2302300D01*
X2530300Y2302082D01*
X2530082Y2301827D01*
X2529827Y2301536D01*
X2529536Y2301244D01*
X2529208Y2300953D01*
X2528880Y2300626D01*
X2528043Y2299970D01*
X2527060Y2299352D01*
X2525968Y2298806D01*
X2525932D01*
X2525823Y2298733D01*
X2525641Y2298696D01*
X2525422Y2298587D01*
X2525131Y2298514D01*
X2524767Y2298405D01*
X2524367Y2298260D01*
X2523930Y2298150D01*
X2523457Y2298041D01*
X2522911Y2297896D01*
X2521782Y2297714D01*
X2520508Y2297568D01*
X2519198Y2297495D01*
X2519162D01*
X2519016D01*
X2518798D01*
X2518543Y2297532D01*
X2518179D01*
X2517815Y2297568D01*
X2517342Y2297604D01*
X2516868Y2297677D01*
X2515813Y2297859D01*
X2514648Y2298114D01*
X2513483Y2298478D01*
X2512355Y2298988D01*
X2512318Y2299024D01*
X2512209Y2299060D01*
X2512064Y2299133D01*
X2511882Y2299279D01*
X2511627Y2299424D01*
X2511336Y2299606D01*
X2510680Y2300080D01*
X2509952Y2300698D01*
X2509224Y2301426D01*
X2508496Y2302264D01*
X2507878Y2303246D01*
X2507841Y2303283D01*
X2507805Y2303392D01*
X2507732Y2303538D01*
X2507623Y2303720D01*
X2507514Y2304011D01*
X2507404Y2304302D01*
X2507259Y2304666D01*
X2507113Y2305066D01*
X2506968Y2305503D01*
X2506822Y2305976D01*
X2506604Y2306996D01*
X2506422Y2308160D01*
X2506349Y2309362D01*
Y2309726D01*
X2506385Y2309980D01*
X2506422Y2310308D01*
X2506458Y2310708D01*
X2506494Y2311109D01*
X2506604Y2311582D01*
X2506822Y2312565D01*
X2507150Y2313657D01*
X2507368Y2314203D01*
X2507623Y2314712D01*
X2507950Y2315222D01*
X2508278Y2315732D01*
X2508314Y2315768D01*
X2508351Y2315841D01*
X2508460Y2315986D01*
X2508642Y2316168D01*
X2508824Y2316350D01*
X2509079Y2316605D01*
X2509370Y2316860D01*
X2509661Y2317151D01*
X2510025Y2317442D01*
X2510462Y2317734D01*
X2510899Y2318061D01*
X2511372Y2318352D01*
X2511918Y2318607D01*
X2512464Y2318898D01*
X2513046Y2319117D01*
X2513702Y2319335D01*
X2514466Y2316059D01*
X2514430D01*
X2514357Y2316023D01*
X2514211Y2315950D01*
X2514029Y2315877D01*
X2513811Y2315804D01*
X2513520Y2315695D01*
X2512937Y2315404D01*
X2512282Y2315040D01*
X2511627Y2314603D01*
X2511008Y2314057D01*
X2510462Y2313475D01*
X2510389Y2313402D01*
X2510244Y2313184D01*
X2510062Y2312820D01*
X2509807Y2312346D01*
X2509588Y2311728D01*
X2509370Y2311036D01*
X2509224Y2310199D01*
X2509188Y2309289D01*
Y2308998D01*
X2509224Y2308816D01*
Y2308561D01*
X2509261Y2308270D01*
X2509370Y2307578D01*
X2509516Y2306814D01*
X2509770Y2306013D01*
X2510134Y2305176D01*
X2510608Y2304411D01*
Y2304375D01*
X2510680Y2304338D01*
X2510862Y2304084D01*
X2511154Y2303756D01*
X2511590Y2303356D01*
X2512136Y2302882D01*
X2512755Y2302446D01*
X2513520Y2302045D01*
X2514357Y2301681D01*
X2514393D01*
X2514466Y2301645D01*
X2514575Y2301608D01*
X2514757Y2301572D01*
X2514976Y2301499D01*
X2515230Y2301426D01*
X2515849Y2301317D01*
X2516577Y2301172D01*
X2517378Y2301026D01*
X2518252Y2300953D01*
X2519198Y2300917D01*
X2519234D01*
X2519344D01*
X2519526D01*
X2519744D01*
X2519999Y2300953D01*
X2520326D01*
X2520690Y2300990D01*
X2521091Y2301026D01*
X2521964Y2301135D01*
X2522911Y2301317D01*
X2523857Y2301536D01*
X2524804Y2301827D01*
X2524840D01*
X2524913Y2301863D01*
X2525022Y2301936D01*
X2525204Y2302009D01*
X2525641Y2302227D01*
X2526150Y2302555D01*
X2526733Y2302955D01*
X2527352Y2303465D01*
X2527898Y2304047D01*
X2528407Y2304739D01*
Y2304775D01*
X2528444Y2304848D01*
X2528516Y2304957D01*
X2528589Y2305103D01*
X2528662Y2305285D01*
X2528771Y2305503D01*
X2528990Y2306013D01*
X2529208Y2306668D01*
X2529390Y2307396D01*
X2529536Y2308197D01*
X2529572Y2309034D01*
Y2309289D01*
X2529536Y2309507D01*
Y2309762D01*
X2529499Y2310017D01*
X2529354Y2310672D01*
X2529172Y2311436D01*
X2528880Y2312201D01*
X2528480Y2313002D01*
X2528262Y2313402D01*
X2527970Y2313766D01*
X2527934Y2313802D01*
X2527898Y2313839D01*
X2527788Y2313948D01*
X2527679Y2314094D01*
X2527497Y2314239D01*
X2527279Y2314421D01*
X2527060Y2314640D01*
X2526769Y2314822D01*
X2526442Y2315040D01*
X2526078Y2315295D01*
X2525714Y2315513D01*
X2525277Y2315732D01*
X2524804Y2315914D01*
X2524294Y2316096D01*
X2523748Y2316278D01*
X2523166Y2316423D01*
X2524003Y2319772D01*
X2524039D01*
X2524185Y2319736D01*
D02*
G37*
G36*
X2514648Y2294183D02*
X2514903Y2294146D01*
X2515230Y2294110D01*
X2515594Y2294037D01*
X2515995Y2293964D01*
X2516832Y2293710D01*
X2517269Y2293564D01*
X2517742Y2293346D01*
X2518215Y2293091D01*
X2518652Y2292836D01*
X2519089Y2292508D01*
X2519526Y2292144D01*
X2519562Y2292108D01*
X2519635Y2292035D01*
X2519744Y2291926D01*
X2519853Y2291744D01*
X2520035Y2291526D01*
X2520217Y2291234D01*
X2520436Y2290870D01*
X2520618Y2290470D01*
X2520836Y2289997D01*
X2521054Y2289451D01*
X2521236Y2288868D01*
X2521382Y2288177D01*
X2521528Y2287449D01*
X2521637Y2286648D01*
X2521710Y2285738D01*
X2521746Y2284792D01*
Y2278349D01*
X2531974D01*
Y2275000D01*
X2506786D01*
Y2285338D01*
X2506822Y2285884D01*
X2506858Y2286502D01*
X2506895Y2287158D01*
X2506968Y2287776D01*
X2507040Y2288322D01*
Y2288395D01*
X2507113Y2288650D01*
X2507186Y2288978D01*
X2507295Y2289414D01*
X2507477Y2289888D01*
X2507696Y2290397D01*
X2507950Y2290943D01*
X2508242Y2291416D01*
X2508278Y2291489D01*
X2508387Y2291635D01*
X2508606Y2291853D01*
X2508860Y2292144D01*
X2509188Y2292472D01*
X2509625Y2292800D01*
X2510098Y2293164D01*
X2510644Y2293455D01*
X2510717Y2293491D01*
X2510899Y2293564D01*
X2511226Y2293710D01*
X2511663Y2293855D01*
X2512173Y2293964D01*
X2512755Y2294110D01*
X2513410Y2294183D01*
X2514102Y2294219D01*
X2514138D01*
X2514248D01*
X2514393D01*
X2514648Y2294183D01*
D02*
G37*
%LPC*%
G36*
X2514211Y2290798D02*
X2514175D01*
X2514138D01*
X2513956D01*
X2513629Y2290761D01*
X2513265Y2290688D01*
X2512864Y2290616D01*
X2512391Y2290470D01*
X2511954Y2290252D01*
X2511518Y2289997D01*
X2511481Y2289960D01*
X2511336Y2289851D01*
X2511154Y2289669D01*
X2510899Y2289451D01*
X2510644Y2289123D01*
X2510426Y2288759D01*
X2510207Y2288359D01*
X2510025Y2287886D01*
Y2287849D01*
X2509989Y2287704D01*
X2509952Y2287485D01*
X2509880Y2287194D01*
X2509843Y2286757D01*
X2509807Y2286211D01*
X2509770Y2285556D01*
Y2278349D01*
X2518761D01*
Y2285119D01*
X2518725Y2285374D01*
Y2285629D01*
X2518688Y2285920D01*
X2518616Y2286612D01*
X2518470Y2287376D01*
X2518252Y2288140D01*
X2517960Y2288832D01*
X2517778Y2289160D01*
X2517560Y2289414D01*
X2517487Y2289487D01*
X2517342Y2289633D01*
X2517050Y2289851D01*
X2516686Y2290106D01*
X2516213Y2290361D01*
X2515631Y2290579D01*
X2514976Y2290725D01*
X2514211Y2290798D01*
D02*
G37*
%LPD*%
D38*
X2461220Y2200196D02*
X2588780D01*
Y2349804D01*
X2461220D02*
X2588780D01*
X2461220Y2200196D02*
Y2349804D01*
%TF.MD5,935f71f1702fe525e847570af272fe5a*%
M02*
